<svg version="1.1" id="Layer_1" xmlns="http://www.w3.org/2000/svg" xmlns:xlink="http://www.w3.org/1999/xlink" x="0px" y="0px"
	 width="100%" viewBox="0 0 512 512" enable-background="new 0 0 512 512" xml:space="preserve">
<path fill="#FFFFFF" opacity="1.000000" stroke="none" 
	d="
M440.000000,0.999998 
	C464.307343,1.000000 488.614716,1.000000 513.000000,1.000000 
	C513.000000,113.020882 513.000000,225.041779 512.651245,337.435974 
	C503.094635,321.611267 493.983398,305.357178 484.621155,289.248932 
	C481.747437,284.304596 476.445068,282.747528 470.884949,284.608185 
	C465.806061,286.307861 460.858948,288.445404 455.709290,289.866394 
	C453.852203,290.378845 451.289795,289.900299 449.539215,288.960938 
	C442.238647,285.043488 435.033295,280.924805 428.004913,276.540253 
	C426.199402,275.413910 424.528687,273.242828 423.908142,271.211945 
	C422.456390,266.460785 421.756592,261.485291 420.609619,256.634369 
	C418.969482,249.697525 415.719055,247.037720 408.710266,247.016266 
	C391.219757,246.962738 373.728851,246.964157 356.238312,247.015610 
	C349.236786,247.036209 345.980438,249.697235 344.343933,256.641785 
	C343.162415,261.655670 342.372955,266.772644 340.961029,271.715790 
	C340.459167,273.472687 338.942841,275.347839 337.366119,276.319977 
	C330.031860,280.842041 322.567413,285.163391 315.016357,289.314392 
	C313.535004,290.128723 311.316559,290.434052 309.693878,290.005493 
	C304.566772,288.651428 299.590240,286.739594 294.501129,285.226288 
	C287.966431,283.283081 284.020477,284.744019 280.598267,290.588531 
	C271.698730,305.787415 262.875793,321.031799 254.127197,336.318085 
	C250.617599,342.450378 251.364166,346.419830 256.647736,351.348907 
	C260.178406,354.642731 263.717926,357.938660 267.425659,361.026886 
	C269.664337,362.891541 270.392487,364.801971 270.243256,367.839813 
	C269.834290,376.164978 270.140045,384.523102 269.904205,392.860870 
	C269.859589,394.438629 268.991547,396.347534 267.871216,397.476013 
	C264.046082,401.329102 259.860779,404.821564 255.959259,408.602631 
	C251.189743,413.224915 250.348053,418.332947 253.597931,424.077606 
	C262.375031,439.592529 271.229523,455.064636 280.185028,470.477173 
	C283.159637,475.596527 288.331299,477.201111 294.243683,475.297699 
	C298.203278,474.022949 302.132111,472.649933 306.108551,471.431274 
	C309.612579,470.357452 312.950165,469.216492 316.505981,472.046204 
	C320.271179,475.042572 324.417480,477.665405 328.686951,479.897430 
	C334.776855,483.081329 341.921906,485.000763 341.965576,493.845215 
	C341.968048,494.344757 341.871948,494.881439 342.017914,495.338135 
	C343.997131,501.531494 343.106445,509.029755 350.000000,513.000000 
	C233.768509,513.000000 117.537010,513.000000 1.000000,513.000000 
	C1.000000,462.979523 1.000000,412.958405 1.372293,362.588501 
	C3.395670,369.437134 6.355079,375.751770 11.568374,381.329071 
	C19.083071,389.368469 27.866543,394.838928 38.779591,394.878387 
	C105.594940,395.119934 172.411606,394.999298 239.227829,394.999268 
	C240.060944,394.999268 240.898315,395.053772 241.726501,394.989716 
	C246.843964,394.594116 250.649704,389.261292 249.400528,384.266144 
	C247.592209,377.035156 244.766113,375.004913 236.369034,375.004120 
	C172.885300,374.997986 109.401550,375.007568 45.917809,374.995880 
	C29.951927,374.992950 21.010315,366.193542 21.007179,350.423553 
	C20.990374,265.945190 20.998129,181.466827 21.009867,96.988457 
	C21.010044,95.719826 21.169624,94.451210 21.249836,93.256699 
	C165.297058,93.256699 309.009644,93.256699 453.000732,93.256699 
	C453.000732,102.812782 453.000671,112.114052 453.000763,121.415329 
	C453.000977,145.075943 452.948517,168.736725 453.032928,192.397049 
	C453.058960,199.700027 457.605530,204.104813 464.524719,203.998444 
	C469.674042,203.919296 472.999054,199.385803 472.999115,192.440445 
	C472.999390,142.286621 472.983215,92.132782 473.008087,41.978970 
	C473.016571,24.831039 464.632477,12.931107 449.941376,5.048552 
	C446.806122,3.366312 443.322906,2.332516 440.000000,0.999998 
M214.387390,191.789246 
	C213.535645,193.467453 212.683899,195.145660 211.634232,197.213821 
	C205.655640,185.716614 200.106384,174.750031 194.268585,163.939270 
	C191.211685,158.278336 185.864929,156.512527 180.841812,158.938202 
	C175.697632,161.422348 173.683426,167.210556 176.600845,172.969879 
	C185.232025,190.008835 193.965408,207.000107 202.962662,223.847748 
	C207.330521,232.026703 216.618652,231.844147 221.152817,223.809875 
	C222.211731,221.933533 223.079041,219.948196 224.016479,218.004318 
	C228.386017,208.943634 232.749237,199.879929 237.352539,190.323578 
	C243.373596,201.894775 248.902313,212.873138 254.764435,223.670517 
	C259.221588,231.880127 268.809052,232.129761 272.898010,223.976898 
	C281.383453,207.057999 289.519196,189.960571 297.579803,172.833542 
	C300.342499,166.963409 298.217896,161.288910 293.020721,158.872925 
	C287.819061,156.454865 282.450989,158.522903 279.439453,164.535599 
	C274.829742,173.739151 270.489227,183.077438 266.016113,192.349686 
	C265.295593,193.843277 264.480072,195.291031 263.474487,197.205322 
	C257.664032,185.946335 252.179626,175.323105 246.699265,164.697769 
	C244.667999,160.759537 241.841019,157.971802 237.065216,157.949646 
	C232.041534,157.926346 229.188400,160.892746 227.199860,165.071945 
	C223.061737,173.768753 218.917984,182.462875 214.387390,191.789246 
M365.311096,158.301056 
	C362.897675,160.898285 359.783051,163.129135 358.199463,166.159943 
	C353.004425,176.102646 348.365479,186.335922 343.187134,197.136841 
	C341.947083,194.985016 341.014099,193.498383 340.208160,191.945801 
	C335.387146,182.658127 330.656036,173.323227 325.765289,164.072601 
	C323.681732,160.131592 320.282135,157.024475 315.788422,158.211395 
	C312.652710,159.039642 308.781952,161.540070 307.655670,164.284958 
	C306.498505,167.105179 307.429688,171.546585 308.911835,174.557419 
	C316.686035,190.349960 324.985657,205.882889 332.964630,221.576233 
	C335.295074,226.159805 338.137482,229.951782 343.753479,229.784256 
	C349.142456,229.623505 351.763611,225.764114 353.848267,221.327240 
	C358.615448,211.181076 363.497314,201.088821 368.684357,190.238876 
	C374.437347,201.377365 379.881653,211.804123 385.209961,222.289825 
	C387.388977,226.577957 390.316132,229.920639 395.434479,229.802231 
	C400.509979,229.684799 403.292267,226.339645 405.369690,221.935104 
	C412.807068,206.166519 420.443451,190.491821 427.985748,174.772614 
	C428.631134,173.427475 429.281799,172.056046 429.682068,170.627380 
	C431.032074,165.808868 428.853546,161.006638 424.486603,158.922653 
	C420.236725,156.894516 415.395538,158.002640 412.483673,161.940811 
	C411.116364,163.790054 410.093689,165.918655 409.081207,168.001556 
	C404.465118,177.498184 399.908173,187.023560 394.938171,197.352737 
	C389.021118,185.952316 383.485107,175.444611 378.107788,164.856293 
	C375.556183,159.831955 371.857758,157.222977 365.311096,158.301056 
M133.541046,194.772263 
	C133.168335,195.383408 132.795624,195.994553 132.124634,197.094803 
	C126.624252,186.510864 121.283531,176.402451 116.112862,166.207764 
	C113.815834,161.678833 111.175621,157.837753 105.413177,157.946686 
	C99.608849,158.056412 97.201187,162.165558 95.062805,166.693405 
	C90.312149,176.752518 85.475105,186.770828 80.449417,197.273590 
	C79.471512,195.471390 78.671112,194.043228 77.913589,192.592667 
	C72.991516,183.167419 68.178535,173.683441 63.127472,164.327957 
	C59.828152,158.217010 54.168552,156.302078 48.975723,159.162933 
	C43.973125,161.919022 42.441566,167.475006 45.508213,173.504257 
	C54.019440,190.237991 62.698990,206.886246 71.362007,223.542297 
	C72.040901,224.847610 72.948181,226.122543 74.020683,227.119736 
	C79.218185,231.952377 86.575180,230.292297 90.065750,223.292511 
	C95.373421,212.648804 100.429245,201.879501 105.923096,190.476410 
	C106.902344,192.233902 107.536316,193.311295 108.114029,194.418045 
	C113.034340,203.844208 118.033760,213.230698 122.816833,222.726120 
	C124.947830,226.956619 127.945534,229.854446 132.780914,229.783142 
	C137.647186,229.711349 140.486771,226.590973 142.497604,222.358368 
	C150.123550,206.306534 157.892960,190.322952 165.552032,174.286774 
	C168.850037,167.381577 167.338928,161.534561 161.731934,158.898148 
	C156.132385,156.265228 150.850235,158.766159 147.430649,165.817245 
	C142.864746,175.232056 138.389084,184.690613 133.541046,194.772263 
M158.500000,266.999847 
	C156.501541,266.999847 154.503098,266.999847 152.504639,266.999847 
	C133.852356,266.999939 115.199913,266.954407 96.547867,267.021271 
	C88.448311,267.050323 83.708160,272.140961 85.063171,279.078339 
	C86.063339,284.198975 90.278023,286.988220 97.249397,286.991821 
	C132.388962,287.009949 167.528519,287.000214 202.668091,287.000122 
	C212.327316,287.000092 221.986542,287.007812 231.645752,286.995697 
	C236.341827,286.989807 240.142563,285.346313 242.081726,280.787872 
	C245.123978,273.636444 239.842010,267.040527 230.944870,267.019287 
	C207.130035,266.962433 183.314972,266.999878 158.500000,266.999847 
M82.500000,314.999481 
	C73.001328,315.005768 63.498493,314.844177 54.005505,315.079590 
	C48.049683,315.227325 44.068394,319.352142 43.939972,324.752411 
	C43.805790,330.394623 47.826122,334.491272 53.997066,334.973450 
	C54.825668,335.038208 55.662769,334.999695 56.495937,334.999725 
	C93.824532,335.000641 131.153122,335.001740 168.481720,334.994629 
	C169.645981,334.994415 170.827682,335.019653 171.971466,334.841644 
	C177.178131,334.031219 180.912567,329.887299 180.913773,325.010498 
	C180.914993,320.147400 177.165009,315.942902 171.977264,315.171173 
	C170.342300,314.927979 168.653549,315.006012 166.989395,315.005493 
	C139.159592,314.997040 111.329796,314.999481 82.500000,314.999481 
M455.276978,229.889481 
	C452.033875,235.743271 452.741119,240.699142 457.283264,243.948135 
	C461.417389,246.905304 467.893188,246.684952 470.861023,243.462036 
	C473.835541,240.231918 473.856842,232.077438 471.049286,228.978149 
	C467.320618,224.862000 461.652069,224.840439 455.276978,229.889481 
M60.041092,284.663544 
	C63.894562,281.023407 64.958626,276.764679 62.248337,272.103851 
	C59.937927,268.130707 56.026466,265.806458 51.753513,267.599548 
	C48.767998,268.852356 45.772881,271.785706 44.390842,274.724884 
	C42.664642,278.395996 44.396900,282.289703 47.801437,284.813416 
	C51.523109,287.572174 55.467495,287.719788 60.041092,284.663544 
z"/>
<path fill="#000000" opacity="1.000000" stroke="none" 
	d="
M439.531342,0.999998 
	C443.322906,2.332516 446.806122,3.366312 449.941376,5.048552 
	C464.632477,12.931107 473.016571,24.831039 473.008087,41.978970 
	C472.983215,92.132782 472.999390,142.286621 472.999115,192.440445 
	C472.999054,199.385803 469.674042,203.919296 464.524719,203.998444 
	C457.605530,204.104813 453.058960,199.700027 453.032928,192.397049 
	C452.948517,168.736725 453.000977,145.075943 453.000763,121.415329 
	C453.000671,112.114052 453.000732,102.812782 453.000732,93.256699 
	C309.009644,93.256699 165.297058,93.256699 21.249836,93.256699 
	C21.169624,94.451210 21.010044,95.719826 21.009867,96.988457 
	C20.998129,181.466827 20.990374,265.945190 21.007179,350.423553 
	C21.010315,366.193542 29.951927,374.992950 45.917809,374.995880 
	C109.401550,375.007568 172.885300,374.997986 236.369034,375.004120 
	C244.766113,375.004913 247.592209,377.035156 249.400528,384.266144 
	C250.649704,389.261292 246.843964,394.594116 241.726501,394.989716 
	C240.898315,395.053772 240.060944,394.999268 239.227829,394.999268 
	C172.411606,394.999298 105.594940,395.119934 38.779591,394.878387 
	C27.866543,394.838928 19.083071,389.368469 11.568374,381.329071 
	C6.355079,375.751770 3.395670,369.437134 1.372293,362.119873 
	C1.000000,252.979111 1.000000,143.958206 1.372126,34.348434 
	C3.560060,24.301109 7.969443,16.217579 15.922228,10.782455 
	C21.548717,6.937177 27.946518,4.220495 34.000000,1.000000 
	C169.020889,1.000000 304.041779,1.000000 439.531342,0.999998 
M249.500000,73.000885 
	C317.240753,73.000885 384.981537,73.000885 453.000793,73.000885 
	C453.000793,70.893311 453.000824,69.416763 453.000824,67.940216 
	C453.000793,60.442535 453.020630,52.944790 452.996643,45.447186 
	C452.946899,29.902006 444.060089,21.008490 428.463684,21.006828 
	C300.836487,20.993223 173.209290,20.999083 45.582081,21.000372 
	C44.582520,21.000381 43.581738,20.990326 42.583588,21.033123 
	C31.988455,21.487396 22.657581,28.568039 21.665236,38.983505 
	C20.602917,50.133381 21.425676,61.462852 21.425676,73.000885 
	C97.261436,73.000885 172.880722,73.000885 249.500000,73.000885 
z"/>
<path fill="#020101" opacity="1.000000" stroke="none" 
	d="
M350.468658,513.000000 
	C343.106445,509.029755 343.997131,501.531494 342.017914,495.338135 
	C341.871948,494.881439 341.968048,494.344757 341.965576,493.845215 
	C341.921906,485.000763 334.776855,483.081329 328.686951,479.897430 
	C324.417480,477.665405 320.271179,475.042572 316.505981,472.046204 
	C312.950165,469.216492 309.612579,470.357452 306.108551,471.431274 
	C302.132111,472.649933 298.203278,474.022949 294.243683,475.297699 
	C288.331299,477.201111 283.159637,475.596527 280.185028,470.477173 
	C271.229523,455.064636 262.375031,439.592529 253.597931,424.077606 
	C250.348053,418.332947 251.189743,413.224915 255.959259,408.602631 
	C259.860779,404.821564 264.046082,401.329102 267.871216,397.476013 
	C268.991547,396.347534 269.859589,394.438629 269.904205,392.860870 
	C270.140045,384.523102 269.834290,376.164978 270.243256,367.839813 
	C270.392487,364.801971 269.664337,362.891541 267.425659,361.026886 
	C263.717926,357.938660 260.178406,354.642731 256.647736,351.348907 
	C251.364166,346.419830 250.617599,342.450378 254.127197,336.318085 
	C262.875793,321.031799 271.698730,305.787415 280.598267,290.588531 
	C284.020477,284.744019 287.966431,283.283081 294.501129,285.226288 
	C299.590240,286.739594 304.566772,288.651428 309.693878,290.005493 
	C311.316559,290.434052 313.535004,290.128723 315.016357,289.314392 
	C322.567413,285.163391 330.031860,280.842041 337.366119,276.319977 
	C338.942841,275.347839 340.459167,273.472687 340.961029,271.715790 
	C342.372955,266.772644 343.162415,261.655670 344.343933,256.641785 
	C345.980438,249.697235 349.236786,247.036209 356.238312,247.015610 
	C373.728851,246.964157 391.219757,246.962738 408.710266,247.016266 
	C415.719055,247.037720 418.969482,249.697525 420.609619,256.634369 
	C421.756592,261.485291 422.456390,266.460785 423.908142,271.211945 
	C424.528687,273.242828 426.199402,275.413910 428.004913,276.540253 
	C435.033295,280.924805 442.238647,285.043488 449.539215,288.960938 
	C451.289795,289.900299 453.852203,290.378845 455.709290,289.866394 
	C460.858948,288.445404 465.806061,286.307861 470.884949,284.608185 
	C476.445068,282.747528 481.747437,284.304596 484.621155,289.248932 
	C493.983398,305.357178 503.094635,321.611267 512.651245,337.904602 
	C513.000000,340.700012 513.000000,343.400024 512.661011,346.635986 
	C509.164062,350.453766 505.923248,353.660828 502.871796,357.038879 
	C499.918518,360.308258 494.865417,361.941071 494.966278,367.630219 
	C495.110687,375.774445 494.869781,383.926941 495.103973,392.066986 
	C495.158539,393.963715 495.989777,396.277466 497.276154,397.621948 
	C502.341583,402.916229 507.730896,407.900604 513.000000,413.000000 
	C513.000000,415.700012 513.000000,418.400024 512.651367,421.645782 
	C503.095093,438.389465 493.984009,454.643555 484.621765,470.751678 
	C481.747925,475.696228 476.461945,477.199402 470.877411,475.410706 
	C466.919006,474.142792 462.981812,472.808838 459.033783,471.508514 
	C455.339111,470.291687 451.930420,469.490936 448.199127,472.196198 
	C443.402008,475.674286 438.363068,479.112976 432.924683,481.337219 
	C426.312225,484.041626 423.714539,488.318726 422.779755,495.219940 
	C421.912628,501.621613 421.657806,508.882111 415.000000,513.000000 
	C393.645782,513.000000 372.291534,513.000000 350.468658,513.000000 
M460.835449,450.684448 
	C463.211029,451.439148 465.549866,452.379639 467.979645,452.860657 
	C469.005310,453.063660 470.824341,452.656555 471.262421,451.919983 
	C477.687195,441.116913 483.939484,430.211273 490.256287,419.289520 
	C486.030731,415.474487 482.289093,411.916656 478.350159,408.592712 
	C474.710358,405.521240 473.667175,401.839600 473.807159,397.111542 
	C474.145325,385.688812 474.144012,374.242310 473.800568,362.819763 
	C473.657959,358.076813 474.776733,354.425781 478.400177,351.359802 
	C482.446472,347.936096 486.298767,344.283081 490.262573,340.705444 
	C486.061646,333.435822 482.103973,326.506958 478.064484,319.626129 
	C475.549438,315.342010 473.772156,308.967377 470.083710,307.498535 
	C466.440887,306.047791 460.809998,309.589966 456.050934,310.940674 
	C455.570496,311.077026 455.075226,311.171265 454.608307,311.343384 
	C450.341949,312.916321 446.440094,312.352417 442.935242,309.389130 
	C434.211853,302.013672 424.517853,296.302826 413.759613,292.433655 
	C409.307007,290.832214 406.676300,287.847260 405.799896,283.092010 
	C404.813385,277.739441 403.466309,272.453308 402.320831,267.338135 
	C388.762695,267.338135 375.678253,267.338135 362.538940,267.338135 
	C361.315216,272.999664 360.124603,278.345093 359.012390,283.706818 
	C358.166687,287.783691 355.915833,290.629669 351.984100,292.074066 
	C340.950531,296.127472 330.885895,301.838135 321.914642,309.468292 
	C318.432404,312.429962 314.498260,312.836670 310.211060,311.326538 
	C305.980865,309.836487 301.731506,308.330902 297.379669,307.300323 
	C296.130066,307.004364 293.790802,307.907806 293.147980,308.979309 
	C286.912933,319.372131 280.932770,329.917877 274.713531,340.708618 
	C278.644409,344.264465 282.342804,347.851288 286.301361,351.123352 
	C290.292877,354.422668 291.307770,358.403229 291.120331,363.486206 
	C290.717651,374.406036 290.682526,385.362457 291.109528,396.279938 
	C291.315826,401.555298 290.274628,405.655823 286.103699,409.055176 
	C282.146240,412.280548 278.487915,415.872925 274.694275,419.307404 
	C281.447052,430.982666 287.926636,442.185577 294.549927,453.636871 
	C300.054657,451.897583 305.279907,450.306824 310.463287,448.589691 
	C314.566162,447.230499 318.377808,447.543854 321.723694,450.387024 
	C330.694733,458.009979 340.723358,463.790924 351.760590,467.838654 
	C355.881287,469.349823 358.210999,472.239594 359.070129,476.541138 
	C360.165466,482.025360 361.460602,487.469666 362.684387,492.997955 
	C375.326141,492.997955 387.483704,493.067688 399.637360,492.881348 
	C400.753357,492.864227 402.496918,491.404419 402.828003,490.283417 
	C403.954651,486.468872 404.767090,482.533813 405.351501,478.593170 
	C406.254242,472.505920 409.722015,469.253784 415.316864,466.768036 
	C423.162445,463.282288 431.203857,459.526611 437.845917,454.235016 
	C445.035370,448.507385 451.689911,446.100800 460.835449,450.684448 
z"/>
<path fill="#FFFFFF" opacity="1.000000" stroke="none" 
	d="
M415.468658,513.000000 
	C421.657806,508.882111 421.912628,501.621613 422.779755,495.219940 
	C423.714539,488.318726 426.312225,484.041626 432.924683,481.337219 
	C438.363068,479.112976 443.402008,475.674286 448.199127,472.196198 
	C451.930420,469.490936 455.339111,470.291687 459.033783,471.508514 
	C462.981812,472.808838 466.919006,474.142792 470.877411,475.410706 
	C476.461945,477.199402 481.747925,475.696228 484.621765,470.751678 
	C493.984009,454.643555 503.095093,438.389465 512.651367,422.095764 
	C513.000000,452.262970 513.000000,482.525909 513.000000,513.000000 
	C480.646088,513.000000 448.291687,513.000000 415.468658,513.000000 
z"/>
<path fill="#FFFFFF" opacity="1.000000" stroke="none" 
	d="
M513.000000,412.531342 
	C507.730896,407.900604 502.341583,402.916229 497.276154,397.621948 
	C495.989777,396.277466 495.158539,393.963715 495.103973,392.066986 
	C494.869781,383.926941 495.110687,375.774445 494.966278,367.630219 
	C494.865417,361.941071 499.918518,360.308258 502.871796,357.038879 
	C505.923248,353.660828 509.164062,350.453766 512.661011,347.085999 
	C513.000000,368.687561 513.000000,390.375122 513.000000,412.531342 
z"/>
<path fill="#FFFFFF" opacity="1.000000" stroke="none" 
	d="
M33.531342,1.000000 
	C27.946518,4.220495 21.548717,6.937177 15.922228,10.782455 
	C7.969443,16.217579 3.560060,24.301109 1.372126,33.879776 
	C1.000000,23.073441 1.000000,12.146883 1.000000,1.000000 
	C11.686553,1.000000 22.374619,1.000000 33.531342,1.000000 
z"/>
<path fill="#030303" opacity="1.000000" stroke="none" 
	d="
M214.581970,191.473663 
	C218.917984,182.462875 223.061737,173.768753 227.199860,165.071945 
	C229.188400,160.892746 232.041534,157.926346 237.065216,157.949646 
	C241.841019,157.971802 244.667999,160.759537 246.699265,164.697769 
	C252.179626,175.323105 257.664032,185.946335 263.474487,197.205322 
	C264.480072,195.291031 265.295593,193.843277 266.016113,192.349686 
	C270.489227,183.077438 274.829742,173.739151 279.439453,164.535599 
	C282.450989,158.522903 287.819061,156.454865 293.020721,158.872925 
	C298.217896,161.288910 300.342499,166.963409 297.579803,172.833542 
	C289.519196,189.960571 281.383453,207.057999 272.898010,223.976898 
	C268.809052,232.129761 259.221588,231.880127 254.764435,223.670517 
	C248.902313,212.873138 243.373596,201.894775 237.352539,190.323578 
	C232.749237,199.879929 228.386017,208.943634 224.016479,218.004318 
	C223.079041,219.948196 222.211731,221.933533 221.152817,223.809875 
	C216.618652,231.844147 207.330521,232.026703 202.962662,223.847748 
	C193.965408,207.000107 185.232025,190.008835 176.600845,172.969879 
	C173.683426,167.210556 175.697632,161.422348 180.841812,158.938202 
	C185.864929,156.512527 191.211685,158.278336 194.268585,163.939270 
	C200.106384,174.750031 205.655640,185.716614 211.634232,197.213821 
	C212.683899,195.145660 213.535645,193.467453 214.581970,191.473663 
z"/>
<path fill="#030303" opacity="1.000000" stroke="none" 
	d="
M365.701019,158.203674 
	C371.857758,157.222977 375.556183,159.831955 378.107788,164.856293 
	C383.485107,175.444611 389.021118,185.952316 394.938171,197.352737 
	C399.908173,187.023560 404.465118,177.498184 409.081207,168.001556 
	C410.093689,165.918655 411.116364,163.790054 412.483673,161.940811 
	C415.395538,158.002640 420.236725,156.894516 424.486603,158.922653 
	C428.853546,161.006638 431.032074,165.808868 429.682068,170.627380 
	C429.281799,172.056046 428.631134,173.427475 427.985748,174.772614 
	C420.443451,190.491821 412.807068,206.166519 405.369690,221.935104 
	C403.292267,226.339645 400.509979,229.684799 395.434479,229.802231 
	C390.316132,229.920639 387.388977,226.577957 385.209961,222.289825 
	C379.881653,211.804123 374.437347,201.377365 368.684357,190.238876 
	C363.497314,201.088821 358.615448,211.181076 353.848267,221.327240 
	C351.763611,225.764114 349.142456,229.623505 343.753479,229.784256 
	C338.137482,229.951782 335.295074,226.159805 332.964630,221.576233 
	C324.985657,205.882889 316.686035,190.349960 308.911835,174.557419 
	C307.429688,171.546585 306.498505,167.105179 307.655670,164.284958 
	C308.781952,161.540070 312.652710,159.039642 315.788422,158.211395 
	C320.282135,157.024475 323.681732,160.131592 325.765289,164.072601 
	C330.656036,173.323227 335.387146,182.658127 340.208160,191.945801 
	C341.014099,193.498383 341.947083,194.985016 343.187134,197.136841 
	C348.365479,186.335922 353.004425,176.102646 358.199463,166.159943 
	C359.783051,163.129135 362.897675,160.898285 365.701019,158.203674 
z"/>
<path fill="#030303" opacity="1.000000" stroke="none" 
	d="
M133.707870,194.451324 
	C138.389084,184.690613 142.864746,175.232056 147.430649,165.817245 
	C150.850235,158.766159 156.132385,156.265228 161.731934,158.898148 
	C167.338928,161.534561 168.850037,167.381577 165.552032,174.286774 
	C157.892960,190.322952 150.123550,206.306534 142.497604,222.358368 
	C140.486771,226.590973 137.647186,229.711349 132.780914,229.783142 
	C127.945534,229.854446 124.947830,226.956619 122.816833,222.726120 
	C118.033760,213.230698 113.034340,203.844208 108.114029,194.418045 
	C107.536316,193.311295 106.902344,192.233902 105.923096,190.476410 
	C100.429245,201.879501 95.373421,212.648804 90.065750,223.292511 
	C86.575180,230.292297 79.218185,231.952377 74.020683,227.119736 
	C72.948181,226.122543 72.040901,224.847610 71.362007,223.542297 
	C62.698990,206.886246 54.019440,190.237991 45.508213,173.504257 
	C42.441566,167.475006 43.973125,161.919022 48.975723,159.162933 
	C54.168552,156.302078 59.828152,158.217010 63.127472,164.327957 
	C68.178535,173.683441 72.991516,183.167419 77.913589,192.592667 
	C78.671112,194.043228 79.471512,195.471390 80.449417,197.273590 
	C85.475105,186.770828 90.312149,176.752518 95.062805,166.693405 
	C97.201187,162.165558 99.608849,158.056412 105.413177,157.946686 
	C111.175621,157.837753 113.815834,161.678833 116.112862,166.207764 
	C121.283531,176.402451 126.624252,186.510864 132.124634,197.094803 
	C132.795624,195.994553 133.168335,195.383408 133.707870,194.451324 
z"/>
<path fill="#010101" opacity="1.000000" stroke="none" 
	d="
M159.000000,266.999847 
	C183.314972,266.999878 207.130035,266.962433 230.944870,267.019287 
	C239.842010,267.040527 245.123978,273.636444 242.081726,280.787872 
	C240.142563,285.346313 236.341827,286.989807 231.645752,286.995697 
	C221.986542,287.007812 212.327316,287.000092 202.668091,287.000122 
	C167.528519,287.000214 132.388962,287.009949 97.249397,286.991821 
	C90.278023,286.988220 86.063339,284.198975 85.063171,279.078339 
	C83.708160,272.140961 88.448311,267.050323 96.547867,267.021271 
	C115.199913,266.954407 133.852356,266.999939 152.504639,266.999847 
	C154.503098,266.999847 156.501541,266.999847 159.000000,266.999847 
z"/>
<path fill="#010101" opacity="1.000000" stroke="none" 
	d="
M83.000000,314.999481 
	C111.329796,314.999481 139.159592,314.997040 166.989395,315.005493 
	C168.653549,315.006012 170.342300,314.927979 171.977264,315.171173 
	C177.165009,315.942902 180.914993,320.147400 180.913773,325.010498 
	C180.912567,329.887299 177.178131,334.031219 171.971466,334.841644 
	C170.827682,335.019653 169.645981,334.994415 168.481720,334.994629 
	C131.153122,335.001740 93.824532,335.000641 56.495937,334.999725 
	C55.662769,334.999695 54.825668,335.038208 53.997066,334.973450 
	C47.826122,334.491272 43.805790,330.394623 43.939972,324.752411 
	C44.068394,319.352142 48.049683,315.227325 54.005505,315.079590 
	C63.498493,314.844177 73.001328,315.005768 83.000000,314.999481 
z"/>
<path fill="#020202" opacity="1.000000" stroke="none" 
	d="
M455.528381,229.597504 
	C461.652069,224.840439 467.320618,224.862000 471.049286,228.978149 
	C473.856842,232.077438 473.835541,240.231918 470.861023,243.462036 
	C467.893188,246.684952 461.417389,246.905304 457.283264,243.948135 
	C452.741119,240.699142 452.033875,235.743271 455.528381,229.597504 
z"/>
<path fill="#070707" opacity="1.000000" stroke="none" 
	d="
M59.714882,284.862610 
	C55.467495,287.719788 51.523109,287.572174 47.801437,284.813416 
	C44.396900,282.289703 42.664642,278.395996 44.390842,274.724884 
	C45.772881,271.785706 48.767998,268.852356 51.753513,267.599548 
	C56.026466,265.806458 59.937927,268.130707 62.248337,272.103851 
	C64.958626,276.764679 63.894562,281.023407 59.714882,284.862610 
z"/>
<path fill="#FE5A5A" opacity="1.000000" stroke="none" 
	d="
M249.000000,73.000885 
	C172.880722,73.000885 97.261436,73.000885 21.425676,73.000885 
	C21.425676,61.462852 20.602917,50.133381 21.665236,38.983505 
	C22.657581,28.568039 31.988455,21.487396 42.583588,21.033123 
	C43.581738,20.990326 44.582520,21.000381 45.582081,21.000372 
	C173.209290,20.999083 300.836487,20.993223 428.463684,21.006828 
	C444.060089,21.008490 452.946899,29.902006 452.996643,45.447186 
	C453.020630,52.944790 453.000793,60.442535 453.000824,67.940216 
	C453.000824,69.416763 453.000793,70.893311 453.000793,73.000885 
	C384.981537,73.000885 317.240753,73.000885 249.000000,73.000885 
M365.500000,56.999794 
	C367.165955,56.999794 368.831909,57.000492 370.497864,56.999683 
	C382.159729,56.994003 393.823944,57.125607 405.482513,56.926170 
	C411.644409,56.820763 415.909973,52.488308 415.926208,47.023354 
	C415.942444,41.561550 411.675446,37.446404 405.529541,37.027992 
	C404.534210,36.960232 403.531097,37.001038 402.531586,37.001026 
	C338.057739,37.000145 273.583893,36.998173 209.110031,37.011803 
	C207.450607,37.012154 205.752548,36.990536 204.139023,37.312531 
	C199.172379,38.303684 195.874878,42.409134 195.984589,47.226398 
	C196.090134,51.862316 199.300797,55.736675 204.095352,56.665314 
	C206.033340,57.040676 208.070541,56.987019 210.062637,56.987614 
	C261.541748,57.003021 313.020874,56.999794 365.500000,56.999794 
M143.028320,51.212803 
	C145.575165,42.734966 139.877304,35.462994 132.102310,37.349159 
	C127.360382,38.499519 124.543610,41.720318 124.255547,46.485764 
	C123.980415,51.037418 126.320419,54.432690 130.634995,56.190369 
	C135.082230,58.002094 138.916000,56.586510 143.028320,51.212803 
M92.301933,55.383892 
	C96.819504,58.070766 101.040222,57.242081 104.526688,53.714024 
	C107.598259,50.605801 108.079834,46.653919 106.164040,42.669460 
	C104.330650,38.856400 101.029015,36.965130 96.908943,37.143681 
	C92.765129,37.323265 89.580971,39.577625 88.197189,43.513634 
	C86.617752,48.006226 87.735115,51.990284 92.301933,55.383892 
M52.155991,41.985794 
	C49.990173,46.085453 49.949348,50.468613 53.405521,53.383785 
	C55.755466,55.365887 59.637093,56.621506 62.706383,56.404030 
	C67.224426,56.083897 69.931190,52.545994 70.363136,47.916519 
	C70.793541,43.303612 68.717026,39.817211 64.481903,37.982391 
	C59.739132,35.927639 55.774540,37.409302 52.155991,41.985794 
z"/>
<path fill="#F3B854" opacity="1.000000" stroke="none" 
	d="
M460.465118,450.515991 
	C451.689911,446.100800 445.035370,448.507385 437.845917,454.235016 
	C431.203857,459.526611 423.162445,463.282288 415.316864,466.768036 
	C409.722015,469.253784 406.254242,472.505920 405.351501,478.593170 
	C404.767090,482.533813 403.954651,486.468872 402.828003,490.283417 
	C402.496918,491.404419 400.753357,492.864227 399.637360,492.881348 
	C387.483704,493.067688 375.326141,492.997955 362.684387,492.997955 
	C361.460602,487.469666 360.165466,482.025360 359.070129,476.541138 
	C358.210999,472.239594 355.881287,469.349823 351.760590,467.838654 
	C340.723358,463.790924 330.694733,458.009979 321.723694,450.387024 
	C318.377808,447.543854 314.566162,447.230499 310.463287,448.589691 
	C305.279907,450.306824 300.054657,451.897583 294.549927,453.636871 
	C287.926636,442.185577 281.447052,430.982666 274.694275,419.307404 
	C278.487915,415.872925 282.146240,412.280548 286.103699,409.055176 
	C290.274628,405.655823 291.315826,401.555298 291.109528,396.279938 
	C290.682526,385.362457 290.717651,374.406036 291.120331,363.486206 
	C291.307770,358.403229 290.292877,354.422668 286.301361,351.123352 
	C282.342804,347.851288 278.644409,344.264465 274.713531,340.708618 
	C280.932770,329.917877 286.912933,319.372131 293.147980,308.979309 
	C293.790802,307.907806 296.130066,307.004364 297.379669,307.300323 
	C301.731506,308.330902 305.980865,309.836487 310.211060,311.326538 
	C314.498260,312.836670 318.432404,312.429962 321.914642,309.468292 
	C330.885895,301.838135 340.950531,296.127472 351.984100,292.074066 
	C355.915833,290.629669 358.166687,287.783691 359.012390,283.706818 
	C360.124603,278.345093 361.315216,272.999664 362.538940,267.338135 
	C375.678253,267.338135 388.762695,267.338135 402.320831,267.338135 
	C403.466309,272.453308 404.813385,277.739441 405.799896,283.092010 
	C406.676300,287.847260 409.307007,290.832214 413.759613,292.433655 
	C424.517853,296.302826 434.211853,302.013672 442.935242,309.389130 
	C446.440094,312.352417 450.341949,312.916321 454.608307,311.343384 
	C455.075226,311.171265 455.570496,311.077026 456.050934,310.940674 
	C460.809998,309.589966 466.440887,306.047791 470.083710,307.498535 
	C473.772156,308.967377 475.549438,315.342010 478.064484,319.626129 
	C482.103973,326.506958 486.061646,333.435822 490.262573,340.705444 
	C486.298767,344.283081 482.446472,347.936096 478.400177,351.359802 
	C474.776733,354.425781 473.657959,358.076813 473.800568,362.819763 
	C474.144012,374.242310 474.145325,385.688812 473.807159,397.111542 
	C473.667175,401.839600 474.710358,405.521240 478.350159,408.592712 
	C482.289093,411.916656 486.030731,415.474487 490.256287,419.289520 
	C483.939484,430.211273 477.687195,441.116913 471.262421,451.919983 
	C470.824341,452.656555 469.005310,453.063660 467.979645,452.860657 
	C465.549866,452.379639 463.211029,451.439148 460.465118,450.515991 
M322.515076,405.869476 
	C336.100861,434.703094 363.818207,449.849701 394.319061,444.006348 
	C420.501007,438.990387 437.982361,423.079926 445.151459,397.437531 
	C452.585480,370.847687 445.110626,347.659058 424.131714,330.012360 
	C403.757324,312.874115 380.222473,309.963196 355.798340,320.531097 
	C325.358887,333.701721 307.963196,369.978088 322.515076,405.869476 
z"/>
<path fill="#000000" opacity="1.000000" stroke="none" 
	d="
M365.000000,56.999794 
	C313.020874,56.999794 261.541748,57.003021 210.062637,56.987614 
	C208.070541,56.987019 206.033340,57.040676 204.095352,56.665314 
	C199.300797,55.736675 196.090134,51.862316 195.984589,47.226398 
	C195.874878,42.409134 199.172379,38.303684 204.139023,37.312531 
	C205.752548,36.990536 207.450607,37.012154 209.110031,37.011803 
	C273.583893,36.998173 338.057739,37.000145 402.531586,37.001026 
	C403.531097,37.001038 404.534210,36.960232 405.529541,37.027992 
	C411.675446,37.446404 415.942444,41.561550 415.926208,47.023354 
	C415.909973,52.488308 411.644409,56.820763 405.482513,56.926170 
	C393.823944,57.125607 382.159729,56.994003 370.497864,56.999683 
	C368.831909,57.000492 367.165955,56.999794 365.000000,56.999794 
z"/>
<path fill="#080303" opacity="1.000000" stroke="none" 
	d="
M142.843414,51.554947 
	C138.916000,56.586510 135.082230,58.002094 130.634995,56.190369 
	C126.320419,54.432690 123.980415,51.037418 124.255547,46.485764 
	C124.543610,41.720318 127.360382,38.499519 132.102310,37.349159 
	C139.877304,35.462994 145.575165,42.734966 142.843414,51.554947 
z"/>
<path fill="#070202" opacity="1.000000" stroke="none" 
	d="
M91.980011,55.179237 
	C87.735115,51.990284 86.617752,48.006226 88.197189,43.513634 
	C89.580971,39.577625 92.765129,37.323265 96.908943,37.143681 
	C101.029015,36.965130 104.330650,38.856400 106.164040,42.669460 
	C108.079834,46.653919 107.598259,50.605801 104.526688,53.714024 
	C101.040222,57.242081 96.819504,58.070766 91.980011,55.179237 
z"/>
<path fill="#070202" opacity="1.000000" stroke="none" 
	d="
M52.387550,41.668114 
	C55.774540,37.409302 59.739132,35.927639 64.481903,37.982391 
	C68.717026,39.817211 70.793541,43.303612 70.363136,47.916519 
	C69.931190,52.545994 67.224426,56.083897 62.706383,56.404030 
	C59.637093,56.621506 55.755466,55.365887 53.405521,53.383785 
	C49.949348,50.468613 49.990173,46.085453 52.387550,41.668114 
z"/>
<path fill="#030202" opacity="1.000000" stroke="none" 
	d="
M322.339722,405.527557 
	C307.963196,369.978088 325.358887,333.701721 355.798340,320.531097 
	C380.222473,309.963196 403.757324,312.874115 424.131714,330.012360 
	C445.110626,347.659058 452.585480,370.847687 445.151459,397.437531 
	C437.982361,423.079926 420.501007,438.990387 394.319061,444.006348 
	C363.818207,449.849701 336.100861,434.703094 322.339722,405.527557 
M400.042633,421.772003 
	C401.948425,420.755066 403.924927,419.850586 405.748810,418.703430 
	C420.297089,409.553223 427.968079,396.156921 427.628632,379.172760 
	C427.208893,358.170746 414.297638,342.425751 394.188080,336.369751 
	C376.649719,331.088074 355.915710,338.764343 345.024902,354.571320 
	C334.433624,369.943604 334.947906,392.672455 346.208862,406.899475 
	C359.635132,423.862122 377.656982,428.984436 400.042633,421.772003 
z"/>
<path fill="#FEFEFE" opacity="1.000000" stroke="none" 
	d="
M399.671204,421.880615 
	C377.656982,428.984436 359.635132,423.862122 346.208862,406.899475 
	C334.947906,392.672455 334.433624,369.943604 345.024902,354.571320 
	C355.915710,338.764343 376.649719,331.088074 394.188080,336.369751 
	C414.297638,342.425751 427.208893,358.170746 427.628632,379.172760 
	C427.968079,396.156921 420.297089,409.553223 405.748810,418.703430 
	C403.924927,419.850586 401.948425,420.755066 399.671204,421.880615 
z"/>
</svg>