<?xml version="1.0" standalone="no"?>
<!DOCTYPE svg PUBLIC "-//W3C//DTD SVG 20010904//EN"
 "http://www.w3.org/TR/2001/REC-SVG-20010904/DTD/svg10.dtd">
<svg version="1.0" xmlns="http://www.w3.org/2000/svg"
 width="512.000000pt" height="512.000000pt" viewBox="0 0 512.000000 512.000000"
 preserveAspectRatio="xMidYMid meet">

<g transform="translate(0.000000,512.000000) scale(0.100000,-0.100000)"
fill="#000000" stroke="none">
<path d="M911 5106 c-51 -28 -50 -17 -51 -673 l0 -613 -260 0 c-283 0 -305 -4
-328 -55 -17 -38 -17 -2812 0 -2850 26 -57 2 -55 828 -55 l760 0 0 -330 0
-330 -160 0 c-120 0 -168 -4 -189 -14 -66 -35 -66 -137 0 -172 42 -21 2056
-21 2098 0 66 35 66 137 0 172 -21 10 -69 14 -189 14 l-160 0 0 330 0 330 760
0 c826 0 802 -2 828 55 9 20 12 362 12 1426 0 1522 3 1441 -55 1467 -18 8
-106 12 -285 12 l-260 0 0 610 c0 451 -3 616 -12 635 -26 58 75 55 -1690 55
-1328 -1 -1627 -3 -1647 -14z m3149 -286 l0 -100 -1500 0 -1500 0 0 100 0 100
1500 0 1500 0 0 -100z m0 -1400 l0 -1100 -1500 0 -1500 0 0 1100 0 1100 1500
0 1500 0 0 -1100z m-3200 -510 c0 -528 3 -716 12 -735 26 -58 -75 -55 1687
-55 1235 0 1626 3 1646 12 56 25 55 6 55 778 l0 710 200 0 200 0 0 -950 0
-950 -835 0 c-625 0 -841 -3 -860 -12 -47 -21 -67 -82 -43 -133 26 -57 -5 -55
903 -55 l835 0 0 -230 0 -230 -2100 0 -2100 0 0 230 0 230 835 0 c625 0 841 3
860 12 29 13 55 55 55 88 0 33 -26 75 -55 88 -19 9 -235 12 -860 12 l-835 0 0
950 0 950 200 0 200 0 0 -710z"/>
<path d="M1511 4106 c-49 -27 -50 -39 -51 -384 0 -351 2 -366 55 -390 19 -9
141 -12 445 -12 304 0 426 3 445 12 53 24 55 40 55 388 0 348 -2 364 -55 388
-39 18 -861 16 -894 -2z m749 -386 l0 -200 -300 0 -300 0 0 200 0 200 300 0
300 0 0 -200z"/>
<path d="M2911 4106 c-47 -26 -63 -84 -37 -135 26 -49 42 -51 387 -51 347 0
363 2 387 55 23 51 7 107 -39 131 -39 20 -662 20 -698 0z"/>
<path d="M2911 3506 c-47 -26 -63 -84 -37 -135 26 -49 42 -51 387 -51 347 0
363 2 387 55 23 51 7 107 -39 131 -39 20 -662 20 -698 0z"/>
<path d="M1511 2906 c-67 -37 -65 -143 4 -174 20 -9 276 -12 1046 -12 863 0
1024 2 1048 14 66 35 66 137 0 172 -40 20 -2061 21 -2098 0z"/>
<path d="M2511 1706 c-87 -48 -50 -186 49 -186 51 0 100 49 100 99 0 75 -83
124 -149 87z"/>
</g>
</svg>
