<svg version="1.1" id="Layer_1" xmlns="http://www.w3.org/2000/svg" xmlns:xlink="http://www.w3.org/1999/xlink" x="0px" y="0px"
	 width="100%" viewBox="0 0 512 512" enable-background="new 0 0 512 512" xml:space="preserve">
<path fill="#000000" opacity="1.000000" stroke="none" 
	d="
M513.000000,46.000000 
	C513.000000,186.356659 513.000000,326.713318 512.643677,467.625793 
	C510.013885,471.665833 507.052826,473.100464 502.649780,473.097351 
	C339.803741,472.981873 176.957596,472.974579 14.111593,473.112946 
	C8.763637,473.117493 4.343952,472.358551 1.000000,468.000000 
	C1.000000,327.643341 1.000000,187.286682 1.356307,46.374237 
	C3.986136,42.334156 6.947235,40.899479 11.350270,40.902603 
	C174.196289,41.018074 337.042419,41.025379 499.888397,40.887001 
	C505.236359,40.882458 509.656036,41.641460 513.000000,46.000000 
M373.500000,453.000610 
	C413.253510,453.000610 453.006989,453.000610 492.730896,453.000610 
	C492.730896,348.709747 492.730896,244.992889 492.730896,140.999359 
	C490.659119,140.999359 488.854187,140.999359 487.049286,140.999359 
	C404.904236,140.999359 322.759186,141.000244 240.614151,140.994843 
	C238.282135,140.994675 235.941132,141.046875 233.619522,140.872406 
	C215.796570,139.533051 201.961288,131.492828 192.709305,116.077492 
	C189.809280,111.245560 187.374863,106.134178 184.646912,100.999336 
	C154.668671,100.999336 124.686913,101.015320 94.705254,100.967865 
	C92.401009,100.964218 89.992287,100.859177 87.815918,100.197090 
	C83.527946,98.892601 81.233292,95.546486 81.153023,91.216965 
	C81.068512,86.658485 83.391823,83.195190 87.874947,81.778923 
	C89.887115,81.143250 92.129501,81.035606 94.268089,81.031494 
	C119.261421,80.983368 144.254868,81.000656 169.248291,81.000656 
	C170.828827,81.000656 172.409348,81.000656 174.744873,81.000656 
	C171.749313,74.961189 168.939011,69.724602 166.551178,64.301971 
	C165.335892,61.542091 163.639572,60.936390 160.834503,60.941456 
	C115.513252,61.023335 70.191803,60.996845 24.870407,61.012352 
	C23.611858,61.012783 22.353376,61.206127 21.318638,61.291130 
	C21.318638,192.066025 21.318638,322.444733 21.318638,453.000610 
	C138.591904,453.000610 255.545959,453.000610 373.500000,453.000610 
M442.500000,121.000839 
	C459.252899,121.000839 476.005798,121.000839 492.632446,121.000839 
	C492.632446,100.613541 492.632446,80.892616 492.632446,61.243217 
	C390.882568,61.243217 289.501160,61.243217 187.544006,61.243217 
	C188.391190,63.119598 189.005234,64.605644 189.719574,66.041801 
	C195.495224,77.653748 201.465866,89.172592 207.032669,100.883537 
	C213.601456,114.702393 224.211716,121.127029 239.580963,121.083298 
	C306.886841,120.891800 374.193573,121.000839 442.500000,121.000839 
z"/>
<path fill="#FFFFFF" opacity="1.000000" stroke="none" 
	d="
M513.000000,45.531342 
	C509.656036,41.641460 505.236359,40.882458 499.888397,40.887001 
	C337.042419,41.025379 174.196289,41.018074 11.350270,40.902603 
	C6.947235,40.899479 3.986136,42.334156 1.356307,45.909225 
	C1.000000,31.010900 1.000000,16.021803 1.000002,1.040060 
	C171.666672,1.047416 342.333344,1.047416 513.000000,1.047416 
	C513.000000,15.750782 513.000000,30.406733 513.000000,45.531342 
z"/>
<path fill="#FFFFFF" opacity="1.000000" stroke="none" 
	d="
M1.000000,468.468658 
	C4.343952,472.358551 8.763637,473.117493 14.111593,473.112946 
	C176.957596,472.974579 339.803741,472.981873 502.649780,473.097351 
	C507.052826,473.100464 510.013885,471.665833 512.643677,468.090790 
	C513.000000,482.989105 513.000000,497.978180 513.000000,512.960022 
	C342.333313,512.952759 171.666656,512.952759 1.000000,512.952759 
	C1.000000,498.249451 1.000000,483.593384 1.000000,468.468658 
z"/>
<path fill="#E1E5EA" opacity="1.000000" stroke="none" 
	d="
M373.000000,453.000610 
	C255.545959,453.000610 138.591904,453.000610 21.318638,453.000610 
	C21.318638,322.444733 21.318638,192.066025 21.318638,61.291130 
	C22.353376,61.206127 23.611858,61.012783 24.870407,61.012352 
	C70.191803,60.996845 115.513252,61.023335 160.834503,60.941456 
	C163.639572,60.936390 165.335892,61.542091 166.551178,64.301971 
	C168.939011,69.724602 171.749313,74.961189 174.744873,81.000656 
	C172.409348,81.000656 170.828827,81.000656 169.248291,81.000656 
	C144.254868,81.000656 119.261421,80.983368 94.268089,81.031494 
	C92.129501,81.035606 89.887115,81.143250 87.874947,81.778923 
	C83.391823,83.195190 81.068512,86.658485 81.153023,91.216965 
	C81.233292,95.546486 83.527946,98.892601 87.815918,100.197090 
	C89.992287,100.859177 92.401009,100.964218 94.705254,100.967865 
	C124.686913,101.015320 154.668671,100.999336 184.646912,100.999336 
	C187.374863,106.134178 189.809280,111.245560 192.709305,116.077492 
	C201.961288,131.492828 215.796570,139.533051 233.619522,140.872406 
	C235.941132,141.046875 238.282135,140.994675 240.614151,140.994843 
	C322.759186,141.000244 404.904236,140.999359 487.049286,140.999359 
	C488.854187,140.999359 490.659119,140.999359 492.730896,140.999359 
	C492.730896,244.992889 492.730896,348.709747 492.730896,453.000610 
	C453.006989,453.000610 413.253510,453.000610 373.000000,453.000610 
M277.500000,161.000641 
	C208.363129,161.000641 139.226257,160.996140 70.089378,161.005844 
	C60.529091,161.007187 57.016037,164.460571 57.007881,173.882050 
	C56.986530,198.538086 56.990559,223.194168 57.005684,247.850220 
	C57.011677,257.615173 60.436337,260.995178 70.321442,260.995636 
	C194.767883,261.001343 319.214325,261.001373 443.660767,260.995667 
	C453.723419,260.995209 456.993744,257.641235 456.996979,247.368423 
	C457.004578,223.212158 457.002869,199.055878 456.997833,174.899612 
	C456.995575,164.074127 453.884796,161.002243 442.929230,161.001755 
	C388.119476,160.999313 333.309753,161.000641 277.500000,161.000641 
M119.434334,371.000000 
	C102.626213,371.000061 85.817955,370.961456 69.010025,371.017487 
	C61.292072,371.043182 57.136063,374.725342 57.047390,381.942352 
	C56.889961,394.754425 56.885506,407.571625 57.063820,420.383240 
	C57.152615,426.763214 61.053173,430.860199 67.339714,430.915588 
	C87.141602,431.090118 106.946991,431.088837 126.748848,430.911530 
	C132.822708,430.857147 136.807739,426.857605 136.909103,420.793488 
	C137.128769,407.650391 137.124039,394.498871 136.917740,381.355347 
	C136.819016,375.064545 132.766907,371.375488 126.398514,371.028473 
	C124.407249,370.919983 122.405495,371.004089 119.434334,371.000000 
M136.999969,327.494598 
	C136.999313,319.008057 137.112915,310.519501 136.962219,302.035645 
	C136.839539,295.128998 132.940323,291.092865 126.083145,291.048248 
	C106.614937,290.921600 87.144615,290.913239 67.676697,291.062531 
	C61.085262,291.113068 57.139278,295.147797 57.054764,301.777039 
	C56.891438,314.587921 56.892117,327.403778 57.054214,340.214661 
	C57.138092,346.843506 61.083172,350.888000 67.668388,350.936737 
	C87.302681,351.082123 106.939667,351.090607 126.573616,350.921875 
	C132.898102,350.867493 136.661728,346.833130 136.952667,340.470825 
	C137.134903,336.485321 136.995209,332.485107 136.999969,327.494598 
M216.651489,349.021210 
	C233.361343,354.385803 245.969879,348.596069 255.567093,331.003967 
	C265.441071,331.003967 275.423279,330.985168 285.405365,331.012207 
	C290.109070,331.024963 293.933777,329.439575 295.995636,324.991516 
	C299.185394,318.110260 294.097137,311.148102 285.672119,311.030121 
	C275.548706,310.888306 265.421783,310.996613 255.383392,310.996613 
	C254.741257,309.634552 254.277069,308.568115 253.746185,307.535950 
	C243.432968,287.484924 216.022552,285.263428 202.796387,303.503784 
	C191.200623,319.495636 197.942505,341.483246 216.651489,349.021210 
M418.092743,292.352264 
	C409.865356,295.223755 403.748901,300.414917 399.801208,308.298126 
	C399.147491,309.603546 396.930634,310.834656 395.402435,310.876801 
	C386.587402,311.119934 377.761841,310.946198 368.940582,311.010925 
	C361.731934,311.063782 357.046997,315.076752 357.060455,321.017731 
	C357.073914,326.957886 361.754089,330.936920 368.976013,330.989929 
	C377.464417,331.052216 385.956543,331.132477 394.440857,330.935760 
	C397.445923,330.866089 398.954987,331.653442 400.423157,334.540314 
	C410.086670,353.541779 435.869690,356.701385 449.439453,340.741577 
	C458.163208,330.481323 459.355408,316.994995 452.555359,305.493774 
	C445.881195,294.205505 433.099121,289.133728 418.092743,292.352264 
M356.105255,380.394714 
	C358.644684,383.474182 361.583038,386.308685 363.651703,389.677246 
	C371.029785,401.691681 378.191406,413.841644 385.272858,426.034485 
	C388.738647,432.001862 394.087524,434.403198 399.324280,431.884460 
	C404.254089,429.513367 406.450256,423.808228 403.754181,418.253387 
	C392.141541,394.327240 378.651184,371.696838 357.842804,354.353424 
	C352.529419,349.924744 346.761963,349.994415 342.793549,354.555298 
	C339.014404,358.898621 339.621216,364.394653 344.483643,369.151611 
	C348.167755,372.755859 351.921661,376.288696 356.105255,380.394714 
M257.106903,405.605225 
	C254.623962,410.466522 251.811813,415.193451 249.756973,420.229401 
	C247.948227,424.662292 250.162537,429.440369 254.232254,431.685760 
	C258.290222,433.924652 263.273865,433.036011 266.399902,429.341583 
	C267.565765,427.963745 268.479919,426.349152 269.367798,424.763489 
	C280.822327,404.306946 292.304962,383.906647 310.347595,368.179382 
	C314.609833,364.464081 314.674835,358.728058 311.364349,354.736084 
	C307.866699,350.518402 302.152924,349.708923 297.550781,353.306366 
	C293.771912,356.260223 289.824921,359.338562 287.030853,363.151917 
	C276.944580,376.917969 267.313934,391.017883 257.106903,405.605225 
M49.059700,100.678810 
	C56.873447,101.068115 62.178394,95.769135 60.680614,89.070969 
	C59.655441,84.486359 55.634880,81.119255 51.111275,81.056923 
	C46.457195,80.992798 42.187824,84.582817 41.260201,89.340477 
	C40.334045,94.090576 42.742153,97.878220 49.059700,100.678810 
M333.118744,313.266235 
	C329.148987,310.455261 324.643463,309.814911 321.293884,313.301575 
	C319.075256,315.611053 317.495850,319.573669 317.540649,322.769440 
	C317.604248,327.305634 321.203003,330.105682 325.751648,330.774353 
	C329.913574,331.386108 333.281281,329.616180 335.417328,326.019836 
	C338.062897,321.565735 337.169037,317.442657 333.118744,313.266235 
z"/>
<path fill="#4696E5" opacity="1.000000" stroke="none" 
	d="
M442.000000,121.000839 
	C374.193573,121.000839 306.886841,120.891800 239.580963,121.083298 
	C224.211716,121.127029 213.601456,114.702393 207.032669,100.883537 
	C201.465866,89.172592 195.495224,77.653748 189.719574,66.041801 
	C189.005234,64.605644 188.391190,63.119598 187.544006,61.243217 
	C289.501160,61.243217 390.882568,61.243217 492.632446,61.243217 
	C492.632446,80.892616 492.632446,100.613541 492.632446,121.000839 
	C476.005798,121.000839 459.252899,121.000839 442.000000,121.000839 
M472.697479,92.945412 
	C474.245026,84.697723 466.162323,79.971931 461.058563,81.269966 
	C456.533905,82.420731 453.118713,86.357552 453.058411,90.888298 
	C452.998230,95.409508 456.290802,99.527443 460.852264,100.635925 
	C465.818420,101.842751 469.777832,99.476013 472.697479,92.945412 
M425.696808,81.532539 
	C418.639557,79.100525 411.597717,86.320915 413.348206,93.138870 
	C414.514862,97.683159 418.577484,100.994873 423.098480,100.941574 
	C427.456451,100.890190 431.363190,97.783325 432.551025,93.424309 
	C433.854919,88.639435 431.902161,84.909500 425.696808,81.532539 
M390.257294,84.296608 
	C386.383484,80.699585 382.123596,79.845406 377.577332,82.857796 
	C373.892639,85.299294 372.383789,88.854187 373.412872,93.214607 
	C374.383331,97.326447 377.145630,100.540230 381.210236,100.481537 
	C384.450928,100.434746 388.400543,98.950523 390.709473,96.727280 
	C394.189362,93.376518 393.562683,88.856720 390.257294,84.296608 
z"/>
<path fill="#000000" opacity="1.000000" stroke="none" 
	d="
M278.000000,161.000641 
	C333.309753,161.000641 388.119476,160.999313 442.929230,161.001755 
	C453.884796,161.002243 456.995575,164.074127 456.997833,174.899612 
	C457.002869,199.055878 457.004578,223.212158 456.996979,247.368423 
	C456.993744,257.641235 453.723419,260.995209 443.660767,260.995667 
	C319.214325,261.001373 194.767883,261.001343 70.321442,260.995636 
	C60.436337,260.995178 57.011677,257.615173 57.005684,247.850220 
	C56.990559,223.194168 56.986530,198.538086 57.007881,173.882050 
	C57.016037,164.460571 60.529091,161.007187 70.089378,161.005844 
	C139.226257,160.996140 208.363129,161.000641 278.000000,161.000641 
M332.500000,241.000656 
	C367.248352,241.000656 401.996704,241.000656 436.672791,241.000656 
	C436.672791,220.661301 436.672791,200.936035 436.672791,181.305511 
	C316.649078,181.305511 196.953461,181.305511 77.327171,181.305511 
	C77.327171,201.338669 77.327171,221.063934 77.327171,241.000656 
	C162.269897,241.000656 246.884949,241.000656 332.500000,241.000656 
z"/>
<path fill="#000000" opacity="1.000000" stroke="none" 
	d="
M119.921432,371.000000 
	C122.405495,371.004089 124.407249,370.919983 126.398514,371.028473 
	C132.766907,371.375488 136.819016,375.064545 136.917740,381.355347 
	C137.124039,394.498871 137.128769,407.650391 136.909103,420.793488 
	C136.807739,426.857605 132.822708,430.857147 126.748848,430.911530 
	C106.946991,431.088837 87.141602,431.090118 67.339714,430.915588 
	C61.053173,430.860199 57.152615,426.763214 57.063820,420.383240 
	C56.885506,407.571625 56.889961,394.754425 57.047390,381.942352 
	C57.136063,374.725342 61.292072,371.043182 69.010025,371.017487 
	C85.817955,370.961456 102.626213,371.000061 119.921432,371.000000 
M77.000916,402.470886 
	C77.000916,405.231384 77.000916,407.991852 77.000916,410.615692 
	C90.733109,410.615692 103.776871,410.615692 116.742081,410.615692 
	C116.742081,403.964539 116.742081,397.699738 116.742081,391.298859 
	C103.441689,391.298859 90.399734,391.298859 77.000916,391.298859 
	C77.000916,394.891022 77.000916,398.189484 77.000916,402.470886 
z"/>
<path fill="#000000" opacity="1.000000" stroke="none" 
	d="
M136.999969,327.993042 
	C136.995209,332.485107 137.134903,336.485321 136.952667,340.470825 
	C136.661728,346.833130 132.898102,350.867493 126.573616,350.921875 
	C106.939667,351.090607 87.302681,351.082123 67.668388,350.936737 
	C61.083172,350.888000 57.138092,346.843506 57.054214,340.214661 
	C56.892117,327.403778 56.891438,314.587921 57.054764,301.777039 
	C57.139278,295.147797 61.085262,291.113068 67.676697,291.062531 
	C87.144615,290.913239 106.614937,290.921600 126.083145,291.048248 
	C132.940323,291.092865 136.839539,295.128998 136.962219,302.035645 
	C137.112915,310.519501 136.999313,319.008057 136.999969,327.993042 
M116.194565,311.145416 
	C103.265808,311.145416 90.337051,311.145416 77.324211,311.145416 
	C77.324211,317.930267 77.324211,324.313873 77.324211,330.630890 
	C90.696602,330.630890 103.742561,330.630890 116.858711,330.630890 
	C116.858711,324.117615 116.858711,317.972076 116.194565,311.145416 
z"/>
<path fill="#030302" opacity="1.000000" stroke="none" 
	d="
M216.271088,348.932068 
	C197.942505,341.483246 191.200623,319.495636 202.796387,303.503784 
	C216.022552,285.263428 243.432968,287.484924 253.746185,307.535950 
	C254.277069,308.568115 254.741257,309.634552 255.383392,310.996613 
	C265.421783,310.996613 275.548706,310.888306 285.672119,311.030121 
	C294.097137,311.148102 299.185394,318.110260 295.995636,324.991516 
	C293.933777,329.439575 290.109070,331.024963 285.405365,331.012207 
	C275.423279,330.985168 265.441071,331.003967 255.567093,331.003967 
	C245.969879,348.596069 233.361343,354.385803 216.271088,348.932068 
M231.152771,329.955750 
	C236.856613,325.944489 238.410614,320.970612 235.499039,316.044586 
	C232.910797,311.665619 227.539413,309.929047 222.979492,311.997040 
	C218.402710,314.072662 216.079498,319.317291 217.657806,324.010742 
	C219.467377,329.391907 224.107880,331.649506 231.152771,329.955750 
z"/>
<path fill="#030302" opacity="1.000000" stroke="none" 
	d="
M418.484802,292.241394 
	C433.099121,289.133728 445.881195,294.205505 452.555359,305.493774 
	C459.355408,316.994995 458.163208,330.481323 449.439453,340.741577 
	C435.869690,356.701385 410.086670,353.541779 400.423157,334.540314 
	C398.954987,331.653442 397.445923,330.866089 394.440857,330.935760 
	C385.956543,331.132477 377.464417,331.052216 368.976013,330.989929 
	C361.754089,330.936920 357.073914,326.957886 357.060455,321.017731 
	C357.046997,315.076752 361.731934,311.063782 368.940582,311.010925 
	C377.761841,310.946198 386.587402,311.119934 395.402435,310.876801 
	C396.930634,310.834656 399.147491,309.603546 399.801208,308.298126 
	C403.748901,300.414917 409.865356,295.223755 418.484802,292.241394 
M436.219910,324.419952 
	C438.056030,316.311279 432.459442,309.655457 425.130707,311.332428 
	C420.391022,312.416992 417.697601,315.569061 417.134277,320.343140 
	C416.635132,324.573486 419.632751,328.821808 423.857941,330.303040 
	C428.569305,331.954742 432.287659,330.370880 436.219910,324.419952 
z"/>
<path fill="#030303" opacity="1.000000" stroke="none" 
	d="
M355.874878,380.124023 
	C351.921661,376.288696 348.167755,372.755859 344.483643,369.151611 
	C339.621216,364.394653 339.014404,358.898621 342.793549,354.555298 
	C346.761963,349.994415 352.529419,349.924744 357.842804,354.353424 
	C378.651184,371.696838 392.141541,394.327240 403.754181,418.253387 
	C406.450256,423.808228 404.254089,429.513367 399.324280,431.884460 
	C394.087524,434.403198 388.738647,432.001862 385.272858,426.034485 
	C378.191406,413.841644 371.029785,401.691681 363.651703,389.677246 
	C361.583038,386.308685 358.644684,383.474182 355.874878,380.124023 
z"/>
<path fill="#030303" opacity="1.000000" stroke="none" 
	d="
M257.309052,405.298462 
	C267.313934,391.017883 276.944580,376.917969 287.030853,363.151917 
	C289.824921,359.338562 293.771912,356.260223 297.550781,353.306366 
	C302.152924,349.708923 307.866699,350.518402 311.364349,354.736084 
	C314.674835,358.728058 314.609833,364.464081 310.347595,368.179382 
	C292.304962,383.906647 280.822327,404.306946 269.367798,424.763489 
	C268.479919,426.349152 267.565765,427.963745 266.399902,429.341583 
	C263.273865,433.036011 258.290222,433.924652 254.232254,431.685760 
	C250.162537,429.440369 247.948227,424.662292 249.756973,420.229401 
	C251.811813,415.193451 254.623962,410.466522 257.309052,405.298462 
z"/>
<path fill="#040404" opacity="1.000000" stroke="none" 
	d="
M48.688370,100.559402 
	C42.742153,97.878220 40.334045,94.090576 41.260201,89.340477 
	C42.187824,84.582817 46.457195,80.992798 51.111275,81.056923 
	C55.634880,81.119255 59.655441,84.486359 60.680614,89.070969 
	C62.178394,95.769135 56.873447,101.068115 48.688370,100.559402 
z"/>
<path fill="#040404" opacity="1.000000" stroke="none" 
	d="
M333.407379,313.514832 
	C337.169037,317.442657 338.062897,321.565735 335.417328,326.019836 
	C333.281281,329.616180 329.913574,331.386108 325.751648,330.774353 
	C321.203003,330.105682 317.604248,327.305634 317.540649,322.769440 
	C317.495850,319.573669 319.075256,315.611053 321.293884,313.301575 
	C324.643463,309.814911 329.148987,310.455261 333.407379,313.514832 
z"/>
<path fill="#020407" opacity="1.000000" stroke="none" 
	d="
M472.583252,93.318718 
	C469.777832,99.476013 465.818420,101.842751 460.852264,100.635925 
	C456.290802,99.527443 452.998230,95.409508 453.058411,90.888298 
	C453.118713,86.357552 456.533905,82.420731 461.058563,81.269966 
	C466.162323,79.971931 474.245026,84.697723 472.583252,93.318718 
z"/>
<path fill="#020407" opacity="1.000000" stroke="none" 
	d="
M426.071411,81.647865 
	C431.902161,84.909500 433.854919,88.639435 432.551025,93.424309 
	C431.363190,97.783325 427.456451,100.890190 423.098480,100.941574 
	C418.577484,100.994873 414.514862,97.683159 413.348206,93.138870 
	C411.597717,86.320915 418.639557,79.100525 426.071411,81.647865 
z"/>
<path fill="#020407" opacity="1.000000" stroke="none" 
	d="
M390.505127,84.586411 
	C393.562683,88.856720 394.189362,93.376518 390.709473,96.727280 
	C388.400543,98.950523 384.450928,100.434746 381.210236,100.481537 
	C377.145630,100.540230 374.383331,97.326447 373.412872,93.214607 
	C372.383789,88.854187 373.892639,85.299294 377.577332,82.857796 
	C382.123596,79.845406 386.383484,80.699585 390.505127,84.586411 
z"/>
<path fill="#5AD2E6" opacity="1.000000" stroke="none" 
	d="
M332.000000,241.000656 
	C246.884949,241.000656 162.269897,241.000656 77.327171,241.000656 
	C77.327171,221.063934 77.327171,201.338669 77.327171,181.305511 
	C196.953461,181.305511 316.649078,181.305511 436.672791,181.305511 
	C436.672791,200.936035 436.672791,220.661301 436.672791,241.000656 
	C401.996704,241.000656 367.248352,241.000656 332.000000,241.000656 
M286.960022,220.969604 
	C293.747711,219.577713 297.458527,215.498932 296.867371,210.079758 
	C296.256042,204.475586 291.926025,201.130310 285.112366,200.999634 
	C284.779663,200.993256 284.446777,200.998611 284.113983,200.998611 
	C259.320312,200.998596 234.526627,200.982681 209.733047,201.029053 
	C207.762787,201.032730 205.688553,201.152527 203.844391,201.765350 
	C199.404922,203.240585 197.058807,206.649063 197.148087,211.225830 
	C197.232925,215.573990 199.554688,218.859543 203.803009,220.215622 
	C205.810333,220.856369 208.051788,220.966324 210.187820,220.970322 
	C235.480591,221.017593 260.773499,220.999313 286.960022,220.969604 
M123.500648,200.997955 
	C118.014580,201.008636 112.518761,200.818741 107.045105,201.084824 
	C101.248222,201.366623 97.127441,205.646042 97.068008,210.907913 
	C97.008667,216.161728 101.103477,220.814133 106.859833,220.873215 
	C126.972954,221.079651 147.090958,221.081543 167.203903,220.864609 
	C172.946716,220.802658 177.030853,216.094147 176.932007,210.843811 
	C176.836243,205.756393 172.897049,201.693771 167.388382,201.087479 
	C166.072479,200.942642 164.731934,201.001602 163.402695,201.001068 
	C150.435242,200.995880 137.467804,200.997955 123.500648,200.997955 
M377.514648,200.996887 
	C374.191467,201.002045 370.785370,200.556808 367.570312,201.149002 
	C364.793030,201.660568 361.757355,202.815720 359.691132,204.649811 
	C356.768707,207.243973 356.292175,211.037918 357.911957,214.759888 
	C359.778107,219.047974 363.300232,220.956207 367.823547,220.977478 
	C380.285431,221.036072 392.748047,221.053467 405.209778,220.982452 
	C412.363708,220.941696 417.032654,216.809708 416.932373,210.859726 
	C416.832306,204.922775 412.193970,201.058182 404.929230,201.010727 
	C396.123016,200.953201 387.316132,200.996948 377.514648,200.996887 
M325.834045,220.852692 
	C331.126556,221.061417 334.830933,218.811401 336.434875,213.681320 
	C337.782471,209.371185 336.333252,205.778580 332.849487,203.117020 
	C329.490997,200.551163 325.319885,199.875977 322.241913,202.614822 
	C319.794678,204.792389 317.604034,208.452316 317.349426,211.618973 
	C316.971436,216.320328 320.345245,219.463501 325.834045,220.852692 
z"/>
<path fill="#F03C32" opacity="1.000000" stroke="none" 
	d="
M77.000916,401.979431 
	C77.000916,398.189484 77.000916,394.891022 77.000916,391.298859 
	C90.399734,391.298859 103.441689,391.298859 116.742081,391.298859 
	C116.742081,397.699738 116.742081,403.964539 116.742081,410.615692 
	C103.776871,410.615692 90.733109,410.615692 77.000916,410.615692 
	C77.000916,407.991852 77.000916,405.231384 77.000916,401.979431 
z"/>
<path fill="#F03C32" opacity="1.000000" stroke="none" 
	d="
M116.526642,311.485962 
	C116.858711,317.972076 116.858711,324.117615 116.858711,330.630890 
	C103.742561,330.630890 90.696602,330.630890 77.324211,330.630890 
	C77.324211,324.313873 77.324211,317.930267 77.324211,311.145416 
	C90.337051,311.145416 103.265808,311.145416 116.526642,311.485962 
z"/>
<path fill="#F6C500" opacity="1.000000" stroke="none" 
	d="
M230.786591,330.087738 
	C224.107880,331.649506 219.467377,329.391907 217.657806,324.010742 
	C216.079498,319.317291 218.402710,314.072662 222.979492,311.997040 
	C227.539413,309.929047 232.910797,311.665619 235.499039,316.044586 
	C238.410614,320.970612 236.856613,325.944489 230.786591,330.087738 
z"/>
<path fill="#F6C500" opacity="1.000000" stroke="none" 
	d="
M436.088684,324.784576 
	C432.287659,330.370880 428.569305,331.954742 423.857941,330.303040 
	C419.632751,328.821808 416.635132,324.573486 417.134277,320.343140 
	C417.697601,315.569061 420.391022,312.416992 425.130707,311.332428 
	C432.459442,309.655457 438.056030,316.311279 436.088684,324.784576 
z"/>
<path fill="#000101" opacity="1.000000" stroke="none" 
	d="
M286.513184,220.983948 
	C260.773499,220.999313 235.480591,221.017593 210.187820,220.970322 
	C208.051788,220.966324 205.810333,220.856369 203.803009,220.215622 
	C199.554688,218.859543 197.232925,215.573990 197.148087,211.225830 
	C197.058807,206.649063 199.404922,203.240585 203.844391,201.765350 
	C205.688553,201.152527 207.762787,201.032730 209.733047,201.029053 
	C234.526627,200.982681 259.320312,200.998596 284.113983,200.998611 
	C284.446777,200.998611 284.779663,200.993256 285.112366,200.999634 
	C291.926025,201.130310 296.256042,204.475586 296.867371,210.079758 
	C297.458527,215.498932 293.747711,219.577713 286.513184,220.983948 
z"/>
<path fill="#010101" opacity="1.000000" stroke="none" 
	d="
M124.000504,200.997955 
	C137.467804,200.997955 150.435242,200.995880 163.402695,201.001068 
	C164.731934,201.001602 166.072479,200.942642 167.388382,201.087479 
	C172.897049,201.693771 176.836243,205.756393 176.932007,210.843811 
	C177.030853,216.094147 172.946716,220.802658 167.203903,220.864609 
	C147.090958,221.081543 126.972954,221.079651 106.859833,220.873215 
	C101.103477,220.814133 97.008667,216.161728 97.068008,210.907913 
	C97.127441,205.646042 101.248222,201.366623 107.045105,201.084824 
	C112.518761,200.818741 118.014580,201.008636 124.000504,200.997955 
z"/>
<path fill="#010202" opacity="1.000000" stroke="none" 
	d="
M378.012085,200.996887 
	C387.316132,200.996948 396.123016,200.953201 404.929230,201.010727 
	C412.193970,201.058182 416.832306,204.922775 416.932373,210.859726 
	C417.032654,216.809708 412.363708,220.941696 405.209778,220.982452 
	C392.748047,221.053467 380.285431,221.036072 367.823547,220.977478 
	C363.300232,220.956207 359.778107,219.047974 357.911957,214.759888 
	C356.292175,211.037918 356.768707,207.243973 359.691132,204.649811 
	C361.757355,202.815720 364.793030,201.660568 367.570312,201.149002 
	C370.785370,200.556808 374.191467,201.002045 378.012085,200.996887 
z"/>
<path fill="#020606" opacity="1.000000" stroke="none" 
	d="
M325.447815,220.771149 
	C320.345245,219.463501 316.971436,216.320328 317.349426,211.618973 
	C317.604034,208.452316 319.794678,204.792389 322.241913,202.614822 
	C325.319885,199.875977 329.490997,200.551163 332.849487,203.117020 
	C336.333252,205.778580 337.782471,209.371185 336.434875,213.681320 
	C334.830933,218.811401 331.126556,221.061417 325.447815,220.771149 
z"/>
</svg>