<svg version="1.1" id="Layer_1" xmlns="http://www.w3.org/2000/svg" xmlns:xlink="http://www.w3.org/1999/xlink" x="0px" y="0px"
	 width="100%" viewBox="0 0 512 512" enable-background="new 0 0 512 512" xml:space="preserve">
<path fill="#FFFFFF" opacity="1.000000" stroke="none" 
	d="
M513.000000,461.000000 
	C513.000000,478.324585 513.000000,495.649170 513.000000,512.980347 
	C342.428284,512.986877 171.856552,512.986877 1.000000,512.986877 
	C1.000000,412.312622 1.000000,311.624969 1.366957,210.584320 
	C2.160262,211.776825 2.491411,213.356216 3.027657,214.862595 
	C8.538106,230.342209 23.886093,241.168991 40.147388,241.087036 
	C87.619247,240.847748 135.093079,241.001999 182.566147,241.001999 
	C184.319275,241.001999 186.072403,241.002014 187.241028,241.002014 
	C185.104782,251.471954 181.899139,261.466125 181.294754,271.615234 
	C180.565079,283.868347 180.504196,296.211670 182.762222,308.599091 
	C186.027649,326.513092 192.605484,342.952942 202.579498,357.834503 
	C212.919952,373.262787 226.276764,385.867371 242.192139,395.866577 
	C259.190308,406.546082 277.662750,412.977600 297.346741,414.784088 
	C323.232452,417.159760 348.369568,413.176605 371.594757,400.677277 
	C374.986725,398.851715 376.856018,399.248535 379.468689,401.879883 
	C404.818756,427.411072 430.289703,452.822388 455.751068,478.242889 
	C467.339752,489.813049 488.732788,490.151825 501.135071,479.522003 
	C507.080902,474.425934 510.258148,467.946777 513.000000,461.000000 
z"/>
<path fill="#010101" opacity="1.000000" stroke="none" 
	d="
M513.000000,460.533142 
	C510.258148,467.946777 507.080902,474.425934 501.135071,479.522003 
	C488.732788,490.151825 467.339752,489.813049 455.751068,478.242889 
	C430.289703,452.822388 404.818756,427.411072 379.468689,401.879883 
	C376.856018,399.248535 374.986725,398.851715 371.594757,400.677277 
	C348.369568,413.176605 323.232452,417.159760 297.346741,414.784088 
	C277.662750,412.977600 259.190308,406.546082 242.192139,395.866577 
	C226.276764,385.867371 212.919952,373.262787 202.579498,357.834503 
	C192.605484,342.952942 186.027649,326.513092 182.762222,308.599091 
	C180.504196,296.211670 180.565079,283.868347 181.294754,271.615234 
	C181.899139,261.466125 185.104782,251.471954 187.241028,241.002014 
	C186.072403,241.002014 184.319275,241.001999 182.566147,241.001999 
	C135.093079,241.001999 87.619247,240.847748 40.147388,241.087036 
	C23.886093,241.168991 8.538106,230.342209 3.027657,214.862595 
	C2.491411,213.356216 2.160262,211.776825 1.366957,210.115662 
	C1.000000,160.312439 1.000000,110.624878 1.366955,60.352997 
	C5.821513,41.610313 22.447914,28.288322 41.106964,28.910440 
	C54.574123,29.359453 68.068298,28.997295 81.550430,28.998226 
	C88.994087,28.998741 91.776039,31.619432 92.042458,39.334290 
	C89.993332,46.686020 87.116669,48.957069 79.825493,48.987232 
	C67.826759,49.036869 55.827644,48.986023 43.828735,49.004601 
	C28.926371,49.027672 21.011927,56.916454 21.006372,71.803810 
	C20.990637,113.966743 20.989216,156.129684 21.007153,198.292633 
	C21.013466,213.132233 28.953922,220.990601 43.925167,220.994400 
	C93.754097,221.007004 143.583130,220.957062 193.411713,221.089371 
	C196.911697,221.098663 198.690887,219.896759 200.420410,217.013123 
	C207.588562,205.061615 216.414871,194.371902 227.424286,185.827942 
	C236.299240,178.940414 245.837036,172.907028 255.387863,166.281647 
	C249.693741,155.289825 243.692673,143.705490 237.343353,131.448883 
	C232.233597,142.076843 227.369675,152.068008 222.626266,162.116089 
	C220.478851,166.665009 218.011566,170.813461 212.281967,170.916290 
	C206.601151,171.018265 203.898087,167.155624 201.579254,162.600128 
	C194.112473,147.931076 186.463593,133.354782 178.920883,118.724190 
	C177.783920,116.518791 176.611465,114.288132 175.850830,111.941025 
	C174.099579,106.537170 176.777054,101.515472 182.127853,99.721458 
	C187.364380,97.965744 191.708572,100.099159 194.953140,106.272789 
	C200.467575,116.765480 205.874283,127.314804 211.675156,138.513931 
	C216.948380,127.623634 221.960358,117.515053 226.737213,107.296555 
	C228.847595,102.782089 231.489502,99.133591 236.926971,99.085869 
	C242.365463,99.038132 245.056747,102.692024 247.291397,107.109871 
	C252.515854,117.438446 257.946747,127.662598 263.559296,138.438309 
	C264.863220,135.819061 265.918274,133.759674 266.921021,131.675140 
	C271.100464,122.986740 275.100983,114.207474 279.483154,105.622879 
	C283.253265,98.237343 291.349274,96.819450 296.281616,102.474045 
	C299.691833,106.383591 299.211761,110.657997 297.083130,115.035667 
	C292.721680,124.005318 288.424225,133.006149 284.118652,142.002853 
	C281.459717,147.558823 278.834351,153.130829 275.708923,159.717819 
	C293.890198,155.170013 311.267548,153.783813 329.583649,156.291321 
	C328.283264,153.677704 327.504822,152.054428 326.676239,150.457123 
	C320.551117,138.648911 314.335480,126.886795 308.313965,115.026062 
	C304.620911,107.751747 307.510223,100.844086 314.633301,99.291962 
	C319.130280,98.312080 323.289001,100.651337 326.143524,106.060249 
	C331.691589,116.572945 337.129730,127.143646 342.964325,138.365234 
	C344.178558,136.023422 345.033630,134.471756 345.801239,132.877930 
	C350.273621,123.591728 354.534668,114.197639 359.242767,105.032990 
	C363.214569,97.301628 372.353455,96.951622 376.954803,104.105698 
	C377.851135,105.499252 378.547119,107.023125 379.315216,108.497452 
	C384.360138,118.181000 389.399567,127.867432 394.787964,138.219971 
	C395.895782,136.196106 396.719147,134.833176 397.410400,133.406235 
	C401.903992,124.130249 406.252075,114.781578 410.884857,105.576004 
	C413.885956,99.612640 419.326141,97.612747 424.519135,100.119217 
	C429.664032,102.602486 431.590759,108.243553 428.776367,114.221085 
	C420.845856,131.064957 412.705322,147.810013 404.627808,164.584503 
	C402.743744,168.497131 399.703796,170.931442 395.252930,170.927704 
	C390.801544,170.923965 387.854126,168.426849 385.875122,164.574387 
	C381.848297,156.735367 377.787964,148.913483 373.716034,141.097778 
	C372.131744,138.056885 370.478729,135.051804 368.598816,131.549347 
	C363.528137,142.149536 358.763214,152.110535 354.033630,161.997620 
	C354.859955,162.524033 355.117981,162.757050 355.420807,162.871582 
	C384.156189,173.738846 406.545715,192.239151 422.679291,218.412643 
	C423.539581,219.808365 426.081940,220.862030 427.858521,220.887894 
	C441.687683,221.089203 455.521118,221.003998 469.353210,220.997910 
	C485.315918,220.990891 492.994415,213.372040 492.996979,197.514374 
	C493.003632,156.018036 493.001129,114.521713 492.998291,73.025383 
	C492.997162,56.457310 485.516327,49.001869 468.893066,49.001606 
	C370.068451,49.000050 271.243866,49.002548 172.419266,48.997894 
	C163.607834,48.997478 160.953064,47.017101 158.919022,38.574715 
	C159.207642,32.039543 162.444351,28.999342 168.781372,28.999231 
	C271.560577,28.997440 374.339996,28.894939 477.118591,29.149021 
	C488.021729,29.175976 497.445587,34.425159 503.912537,43.406994 
	C507.569458,48.486008 510.011017,54.440075 513.000000,59.999996 
	C513.000000,109.687561 513.000000,159.375122 512.633057,209.647003 
	C508.905060,222.281891 502.609711,231.771988 490.671387,237.165955 
	C484.713654,239.857727 478.849762,241.191238 472.359406,241.071198 
	C459.631836,240.835846 446.896820,241.002014 434.877533,241.002014 
	C436.975281,251.839493 440.018402,262.167755 440.766052,272.659576 
	C441.954010,289.331055 441.277283,306.037445 436.059723,322.268951 
	C431.955933,335.035614 426.746796,347.190186 418.549133,358.223297 
	C410.025696,367.856201 401.796936,377.357971 393.459229,386.985535 
	C418.472076,412.025848 443.883118,437.505829 469.358856,462.920990 
	C472.878418,466.432190 477.283020,467.799469 482.208893,466.573761 
	C493.084778,463.867432 496.570435,451.282043 488.560913,442.984070 
	C479.420135,433.514191 469.981628,424.331818 460.677887,415.019104 
	C453.755585,408.090149 453.358185,405.447449 458.327698,396.998779 
	C462.704590,393.781860 468.536438,394.150452 472.321106,397.882141 
	C479.883423,405.338593 487.286407,412.957886 494.904785,420.355896 
	C502.334320,427.570526 509.886963,434.639679 513.000000,445.000000 
	C513.000000,450.022095 513.000000,455.044189 513.000000,460.533142 
M380.574768,370.083252 
	C424.450439,331.834900 433.556335,274.256622 403.428467,225.574951 
	C373.547760,177.292587 306.757904,160.505066 257.588379,188.918243 
	C205.185516,219.199844 186.054291,281.246216 213.402252,335.218140 
	C229.309250,366.611023 255.468124,385.998779 290.000458,392.806549 
	C323.202423,399.352081 353.333221,391.365234 380.574768,370.083252 
z"/>
<path fill="#FFFFFF" opacity="1.000000" stroke="none" 
	d="
M92.148987,38.977558 
	C91.776039,31.619432 88.994087,28.998741 81.550430,28.998226 
	C68.068298,28.997295 54.574123,29.359453 41.106964,28.910440 
	C22.447914,28.288322 5.821513,41.610313 1.366955,59.884338 
	C1.000000,40.346989 1.000000,20.693979 1.000002,1.046273 
	C171.666672,1.051577 342.333344,1.051577 513.000000,1.051577 
	C513.000000,20.422997 513.000000,39.742840 513.000000,59.531338 
	C510.011017,54.440075 507.569458,48.486008 503.912537,43.406994 
	C497.445587,34.425159 488.021729,29.175976 477.118591,29.149021 
	C374.339996,28.894939 271.560577,28.997440 168.781372,28.999231 
	C162.444351,28.999342 159.207642,32.039543 158.460251,38.583046 
	C151.005600,38.988911 144.077713,38.983730 137.082214,38.574883 
	C136.810135,32.295025 133.483429,29.524696 127.845680,28.865185 
	C121.473022,28.119703 116.139030,32.884380 116.390335,38.987801 
	C108.003792,38.989922 100.076393,38.983738 92.148987,38.977558 
z"/>
<path fill="#FFFFFF" opacity="1.000000" stroke="none" 
	d="
M418.843872,358.092163 
	C426.746796,347.190186 431.955933,335.035614 436.059723,322.268951 
	C441.277283,306.037445 441.954010,289.331055 440.766052,272.659576 
	C440.018402,262.167755 436.975281,251.839493 434.877533,241.002014 
	C446.896820,241.002014 459.631836,240.835846 472.359406,241.071198 
	C478.849762,241.191238 484.713654,239.857727 490.671387,237.165955 
	C502.609711,231.771988 508.905060,222.281891 512.633057,210.115662 
	C513.000000,288.020905 513.000000,366.041779 513.000000,444.531342 
	C509.886963,434.639679 502.334320,427.570526 494.904785,420.355896 
	C487.286407,412.957886 479.883423,405.338593 472.321106,397.882141 
	C468.536438,394.150452 462.704590,393.781860 458.031616,396.837524 
	C454.504364,393.989044 451.639862,391.141998 448.878296,387.987366 
	C452.160156,383.678314 451.922119,378.297913 448.935760,374.347382 
	C446.268463,370.818878 438.805267,369.282654 433.698853,373.012390 
	C428.542603,367.939697 423.693237,363.015930 418.843872,358.092163 
z"/>
<path fill="#FEC56C" opacity="1.000000" stroke="none" 
	d="
M137.149826,38.978550 
	C144.077713,38.983730 151.005600,38.988911 158.392258,38.985764 
	C160.953064,47.017101 163.607834,48.997478 172.419266,48.997894 
	C271.243866,49.002548 370.068451,49.000050 468.893066,49.001606 
	C485.516327,49.001869 492.997162,56.457310 492.998291,73.025383 
	C493.001129,114.521713 493.003632,156.018036 492.996979,197.514374 
	C492.994415,213.372040 485.315918,220.990891 469.353210,220.997910 
	C455.521118,221.003998 441.687683,221.089203 427.858521,220.887894 
	C426.081940,220.862030 423.539581,219.808365 422.679291,218.412643 
	C406.545715,192.239151 384.156189,173.738846 355.420807,162.871582 
	C355.117981,162.757050 354.859955,162.524033 354.033630,161.997620 
	C358.763214,152.110535 363.528137,142.149536 368.598816,131.549347 
	C370.478729,135.051804 372.131744,138.056885 373.716034,141.097778 
	C377.787964,148.913483 381.848297,156.735367 385.875122,164.574387 
	C387.854126,168.426849 390.801544,170.923965 395.252930,170.927704 
	C399.703796,170.931442 402.743744,168.497131 404.627808,164.584503 
	C412.705322,147.810013 420.845856,131.064957 428.776367,114.221085 
	C431.590759,108.243553 429.664032,102.602486 424.519135,100.119217 
	C419.326141,97.612747 413.885956,99.612640 410.884857,105.576004 
	C406.252075,114.781578 401.903992,124.130249 397.410400,133.406235 
	C396.719147,134.833176 395.895782,136.196106 394.787964,138.219971 
	C389.399567,127.867432 384.360138,118.181000 379.315216,108.497452 
	C378.547119,107.023125 377.851135,105.499252 376.954803,104.105698 
	C372.353455,96.951622 363.214569,97.301628 359.242767,105.032990 
	C354.534668,114.197639 350.273621,123.591728 345.801239,132.877930 
	C345.033630,134.471756 344.178558,136.023422 342.964325,138.365234 
	C337.129730,127.143646 331.691589,116.572945 326.143524,106.060249 
	C323.289001,100.651337 319.130280,98.312080 314.633301,99.291962 
	C307.510223,100.844086 304.620911,107.751747 308.313965,115.026062 
	C314.335480,126.886795 320.551117,138.648911 326.676239,150.457123 
	C327.504822,152.054428 328.283264,153.677704 329.583649,156.291321 
	C311.267548,153.783813 293.890198,155.170013 275.708923,159.717819 
	C278.834351,153.130829 281.459717,147.558823 284.118652,142.002853 
	C288.424225,133.006149 292.721680,124.005318 297.083130,115.035667 
	C299.211761,110.657997 299.691833,106.383591 296.281616,102.474045 
	C291.349274,96.819450 283.253265,98.237343 279.483154,105.622879 
	C275.100983,114.207474 271.100464,122.986740 266.921021,131.675140 
	C265.918274,133.759674 264.863220,135.819061 263.559296,138.438309 
	C257.946747,127.662598 252.515854,117.438446 247.291397,107.109871 
	C245.056747,102.692024 242.365463,99.038132 236.926971,99.085869 
	C231.489502,99.133591 228.847595,102.782089 226.737213,107.296555 
	C221.960358,117.515053 216.948380,127.623634 211.675156,138.513931 
	C205.874283,127.314804 200.467575,116.765480 194.953140,106.272789 
	C191.708572,100.099159 187.364380,97.965744 182.127853,99.721458 
	C176.777054,101.515472 174.099579,106.537170 175.850830,111.941025 
	C176.611465,114.288132 177.783920,116.518791 178.920883,118.724190 
	C186.463593,133.354782 194.112473,147.931076 201.579254,162.600128 
	C203.898087,167.155624 206.601151,171.018265 212.281967,170.916290 
	C218.011566,170.813461 220.478851,166.665009 222.626266,162.116089 
	C227.369675,152.068008 232.233597,142.076843 237.343353,131.448883 
	C243.692673,143.705490 249.693741,155.289825 255.387863,166.281647 
	C245.837036,172.907028 236.299240,178.940414 227.424286,185.827942 
	C216.414871,194.371902 207.588562,205.061615 200.420410,217.013123 
	C198.690887,219.896759 196.911697,221.098663 193.411713,221.089371 
	C143.583130,220.957062 93.754097,221.007004 43.925167,220.994400 
	C28.953922,220.990601 21.013466,213.132233 21.007153,198.292633 
	C20.989216,156.129684 20.990637,113.966743 21.006372,71.803810 
	C21.011927,56.916454 28.926371,49.027672 43.828735,49.004601 
	C55.827644,48.986023 67.826759,49.036869 79.825493,48.987232 
	C87.116669,48.957069 89.993332,46.686020 92.042458,39.334290 
	C100.076393,38.983738 108.003792,38.989922 116.496063,39.344574 
	C118.735680,45.734703 122.298080,49.007618 127.117699,48.932587 
	C132.053864,48.855743 135.388214,45.547344 137.149826,38.978550 
M95.925819,152.411499 
	C99.137100,145.749802 102.348389,139.088120 105.994850,131.523697 
	C111.895264,142.858963 117.387138,153.229431 122.694237,163.693604 
	C124.810158,167.865646 127.631554,170.918457 132.542526,170.937637 
	C137.721725,170.957870 140.554382,167.637329 142.624329,163.283340 
	C149.333633,149.170700 156.135376,135.102036 162.891449,121.011604 
	C164.185547,118.312637 165.647675,115.668694 166.657242,112.864349 
	C168.538315,107.639244 166.417465,102.322151 161.848267,100.112694 
	C157.102997,97.818100 152.040207,99.405106 148.928009,104.245621 
	C148.123871,105.496315 147.515930,106.877655 146.865845,108.222183 
	C142.103546,118.071747 137.353424,127.927208 132.312469,138.375702 
	C131.281281,136.480927 130.483612,135.070419 129.736603,133.633591 
	C125.058105,124.634773 120.346802,115.652557 115.739349,106.617432 
	C113.567116,102.357727 110.732246,99.000381 105.545578,99.068817 
	C100.377037,99.137001 97.609093,102.469391 95.555183,106.845909 
	C90.684395,117.224709 85.643364,127.523613 80.411804,138.393646 
	C79.406464,136.546005 78.605164,135.127701 77.853691,133.683456 
	C73.018738,124.391197 68.271507,115.052269 63.340229,105.811523 
	C60.016609,99.583397 54.632977,97.534210 49.318005,100.171837 
	C44.027672,102.797234 42.357662,108.544403 45.531586,114.773331 
	C54.061882,131.514252 62.767326,148.165970 71.415909,164.846542 
	C73.418228,168.708420 76.537979,171.026657 80.972008,170.914703 
	C85.425728,170.802246 88.316132,168.236923 90.167130,164.311111 
	C91.939156,160.552780 93.786346,156.829895 95.925819,152.411499 
z"/>
<path fill="#FCFCFC" opacity="1.000000" stroke="none" 
	d="
M380.299622,370.307373 
	C353.333221,391.365234 323.202423,399.352081 290.000458,392.806549 
	C255.468124,385.998779 229.309250,366.611023 213.402252,335.218140 
	C186.054291,281.246216 205.185516,219.199844 257.588379,188.918243 
	C306.757904,160.505066 373.547760,177.292587 403.428467,225.574951 
	C433.556335,274.256622 424.450439,331.834900 380.299622,370.307373 
M397.703674,300.020599 
	C399.757751,287.535309 399.237976,275.201385 396.082184,262.904785 
	C384.418793,217.458588 338.183167,188.967194 292.242340,199.035172 
	C246.075180,209.152786 215.821945,254.623978 224.502426,300.849609 
	C232.352753,342.654510 268.712067,372.977509 311.000397,372.987335 
	C353.279816,372.997162 389.425262,342.859619 397.703674,300.020599 
z"/>
<path fill="#FE5D5D" opacity="1.000000" stroke="none" 
	d="
M448.775330,388.294983 
	C451.639862,391.141998 454.504364,393.989044 457.665009,396.997314 
	C453.358185,405.447449 453.755585,408.090149 460.677887,415.019104 
	C469.981628,424.331818 479.420135,433.514191 488.560913,442.984070 
	C496.570435,451.282043 493.084778,463.867432 482.208893,466.573761 
	C477.283020,467.799469 472.878418,466.432190 469.358856,462.920990 
	C443.883118,437.505829 418.472076,412.025848 393.459229,386.985535 
	C401.796936,377.357971 410.025696,367.856201 418.549133,358.223297 
	C423.693237,363.015930 428.542603,367.939697 433.665649,373.369995 
	C429.793488,381.392090 430.959534,387.442749 437.088257,390.278778 
	C441.444061,392.294373 445.127869,390.417419 448.775330,388.294983 
z"/>
<path fill="#030201" opacity="1.000000" stroke="none" 
	d="
M137.082214,38.574883 
	C135.388214,45.547344 132.053864,48.855743 127.117699,48.932587 
	C122.298080,49.007618 118.735680,45.734703 116.955208,39.336273 
	C116.139030,32.884380 121.473022,28.119703 127.845680,28.865185 
	C133.483429,29.524696 136.810135,32.295025 137.082214,38.574883 
z"/>
<path fill="#040101" opacity="1.000000" stroke="none" 
	d="
M448.878296,387.987366 
	C445.127869,390.417419 441.444061,392.294373 437.088257,390.278778 
	C430.959534,387.442749 429.793488,381.392090 433.972534,373.518921 
	C438.805267,369.282654 446.268463,370.818878 448.935760,374.347382 
	C451.922119,378.297913 452.160156,383.678314 448.878296,387.987366 
z"/>
<path fill="#030301" opacity="1.000000" stroke="none" 
	d="
M95.763153,152.751465 
	C93.786346,156.829895 91.939156,160.552780 90.167130,164.311111 
	C88.316132,168.236923 85.425728,170.802246 80.972008,170.914703 
	C76.537979,171.026657 73.418228,168.708420 71.415909,164.846542 
	C62.767326,148.165970 54.061882,131.514252 45.531586,114.773331 
	C42.357662,108.544403 44.027672,102.797234 49.318005,100.171837 
	C54.632977,97.534210 60.016609,99.583397 63.340229,105.811523 
	C68.271507,115.052269 73.018738,124.391197 77.853691,133.683456 
	C78.605164,135.127701 79.406464,136.546005 80.411804,138.393646 
	C85.643364,127.523613 90.684395,117.224709 95.555183,106.845909 
	C97.609093,102.469391 100.377037,99.137001 105.545578,99.068817 
	C110.732246,99.000381 113.567116,102.357727 115.739349,106.617432 
	C120.346802,115.652557 125.058105,124.634773 129.736603,133.633591 
	C130.483612,135.070419 131.281281,136.480927 132.312469,138.375702 
	C137.353424,127.927208 142.103546,118.071747 146.865845,108.222183 
	C147.515930,106.877655 148.123871,105.496315 148.928009,104.245621 
	C152.040207,99.405106 157.102997,97.818100 161.848267,100.112694 
	C166.417465,102.322151 168.538315,107.639244 166.657242,112.864349 
	C165.647675,115.668694 164.185547,118.312637 162.891449,121.011604 
	C156.135376,135.102036 149.333633,149.170700 142.624329,163.283340 
	C140.554382,167.637329 137.721725,170.957870 132.542526,170.937637 
	C127.631554,170.918457 124.810158,167.865646 122.694237,163.693604 
	C117.387138,153.229431 111.895264,142.858963 105.994850,131.523697 
	C102.348389,139.088120 99.137100,145.749802 95.763153,152.751465 
z"/>
<path fill="#020303" opacity="1.000000" stroke="none" 
	d="
M397.606781,300.438782 
	C389.425262,342.859619 353.279816,372.997162 311.000397,372.987335 
	C268.712067,372.977509 232.352753,342.654510 224.502426,300.849609 
	C215.821945,254.623978 246.075180,209.152786 292.242340,199.035172 
	C338.183167,188.967194 384.418793,217.458588 396.082184,262.904785 
	C399.237976,275.201385 399.757751,287.535309 397.606781,300.438782 
M246.078964,305.241089 
	C257.358704,340.312683 293.366730,359.712585 327.922546,350.833496 
	C359.834747,342.633728 381.601105,312.027649 378.796509,279.325531 
	C375.966095,246.322342 349.072388,219.594482 316.267181,217.181854 
	C268.663055,213.680878 232.685242,258.315948 246.078964,305.241089 
z"/>
<path fill="#71D7FE" opacity="1.000000" stroke="none" 
	d="
M246.002487,304.845093 
	C232.685242,258.315948 268.663055,213.680878 316.267181,217.181854 
	C349.072388,219.594482 375.966095,246.322342 378.796509,279.325531 
	C381.601105,312.027649 359.834747,342.633728 327.922546,350.833496 
	C293.366730,359.712585 257.358704,340.312683 246.002487,304.845093 
M340.356598,251.123734 
	C332.436737,244.158249 323.086456,240.750427 312.665710,240.112778 
	C306.396698,239.729187 301.593781,243.613266 301.102448,249.294052 
	C300.639648,254.644775 304.680664,259.115326 310.745850,259.962494 
	C327.315948,262.276886 333.546906,268.555786 336.064209,285.475677 
	C336.958313,291.485474 341.553436,295.461975 346.923187,294.872650 
	C352.424194,294.268921 356.231781,289.641052 355.898529,283.623444 
	C355.196991,270.956146 350.407379,260.153076 340.356598,251.123734 
z"/>
<path fill="#020303" opacity="1.000000" stroke="none" 
	d="
M340.626434,251.354996 
	C350.407379,260.153076 355.196991,270.956146 355.898529,283.623444 
	C356.231781,289.641052 352.424194,294.268921 346.923187,294.872650 
	C341.553436,295.461975 336.958313,291.485474 336.064209,285.475677 
	C333.546906,268.555786 327.315948,262.276886 310.745850,259.962494 
	C304.680664,259.115326 300.639648,254.644775 301.102448,249.294052 
	C301.593781,243.613266 306.396698,239.729187 312.665710,240.112778 
	C323.086456,240.750427 332.436737,244.158249 340.626434,251.354996 
z"/>
</svg>